<svg width="238" height="184" viewBox="0 0 238 184" fill="none" xmlns="http://www.w3.org/2000/svg">
    <path
        d="M174.535 104.188C173.882 103.454 173.591 103.575 173.664 104.549L173.827 107.238C173.861 107.725 174 108.2 174.235 108.633C174.47 109.065 174.795 109.445 175.189 109.746C186.281 118.191 202.874 127.844 194.941 145.203C191.963 151.717 186.789 154.351 179.927 157.04C179.382 157.256 179.043 157.653 178.91 158.231C176.889 167.782 170.838 172.997 160.756 173.875C148.992 174.885 142.456 170.826 132.889 167.145C132.32 166.932 131.709 166.882 131.128 167C125.01 168.317 118.728 169.977 112.774 170.14C101.276 170.429 90.008 168.853 78.9701 165.412C74.5646 164.041 70.1591 162.64 65.7537 161.208C65.1848 161.028 64.616 161.034 64.0472 161.226C54.6674 164.51 45.6204 165.112 36.9063 163.03C22.2556 159.548 12.5249 144.698 21.4569 130.641C21.676 130.296 21.7566 129.882 21.6826 129.481C21.6086 129.08 21.3854 128.721 21.0575 128.476C4.4643 116.17 -8.13489 96.1225 6.35235 76.4543C7.91363 74.3431 10.5642 72.2861 12.6157 70.0847C12.9921 69.6758 13.222 69.1491 13.2692 68.587C14.0196 59.5168 17.475 51.6255 23.6354 44.913C23.8425 44.6838 24.002 44.4175 24.1048 44.1295C24.2077 43.8415 24.2517 43.5375 24.2345 43.2349C23.236 23.7652 34.4736 10.629 53.8988 7.36301C59.7082 6.38862 70.3831 6.74951 67.0426 16.2588C66.9596 16.4945 66.947 16.7572 67.0063 17.0167L68.8399 24.884C68.9489 25.3531 69.2393 25.6117 69.7113 25.6599L77.3181 26.3636C77.9474 26.4237 78.4134 26.1831 78.7159 25.6418C83.4603 17.161 90.0201 12.2289 98.3954 10.8455C107.981 9.26968 114.71 8.99301 118.583 10.0155C126.299 12.0365 123.067 18.9655 121.669 23.9637C121.609 24.1441 121.675 24.2644 121.869 24.3246L122.359 24.487C122.65 24.5712 122.849 24.4689 122.958 24.1802C131.527 -0.107284 151.043 -7.50542 171.903 8.46371C172.387 8.83662 172.937 9.00505 173.555 8.96896C176.326 8.86069 179.031 8.6622 181.67 8.3735C196.629 6.76756 220.793 9.99747 228.653 25.1727C234.445 36.342 226.874 43.8304 217.107 47.5836C216.478 47.8242 216.115 48.2753 216.018 48.9369C214.112 63.3903 203.201 67.1255 191.056 70.7162C190.414 70.9087 189.912 71.2877 189.549 71.853C185.071 79.0346 178.638 83.5216 170.251 85.314C170.124 85.3394 170.009 85.4035 169.921 85.4974C169.833 85.5912 169.777 85.7101 169.76 85.8373L169.633 86.7395C169.561 87.2568 169.773 87.4372 170.269 87.2809C177.24 85.1155 179.419 87.0282 185.083 87.9485C188.375 88.4778 190.547 89.0311 191.6 89.6085C197.101 92.6039 202.003 102.781 195.086 106.787C194.664 107.031 194.181 107.154 193.693 107.141C193.204 107.128 192.729 106.981 192.32 106.715C191.911 106.449 191.585 106.075 191.377 105.635C191.17 105.195 191.09 104.707 191.146 104.224L191.691 99.8035C191.731 99.4883 191.699 99.1679 191.599 98.8652C191.498 98.5626 191.331 98.2853 191.11 98.0533L190.438 97.2954C189.833 96.6458 189.458 96.7541 189.313 97.6202C188.351 103.214 186.771 108.501 179.836 107.382C177.948 107.081 176.181 106.017 174.535 104.188ZM52.9003 16.9445C43.1817 19.3624 36.9063 25.0884 34.0742 34.1226C33.8442 34.8684 34.0984 35.115 34.8367 34.8624C36.64 34.2248 38.1226 33.2204 39.2845 31.849L57.6386 26.3816C58.0743 26.256 58.444 25.9663 58.6706 25.573C58.8972 25.1797 58.9633 24.7131 58.855 24.2704L57.2211 17.4858C57.0516 16.7761 56.6039 16.4693 55.8777 16.5656L52.9003 16.9445ZM129.058 80.3158C120.108 79.6301 123.231 62.2174 124.937 56.0283C125.022 55.7341 125.01 55.4201 124.902 55.1315C124.795 54.8428 124.597 54.5945 124.338 54.4223L117.312 49.7489C116.695 49.3399 116.108 49.376 115.551 49.8571C112.562 52.4194 109.106 53.9953 105.185 54.5847C103.973 54.7671 102.738 54.4681 101.746 53.7523C100.754 53.0364 100.085 51.9613 99.884 50.7594L99.757 49.9835C99.599 49.0509 99.8064 48.0937 100.336 47.3084C100.867 46.5231 101.679 45.9694 102.607 45.7611C108.586 44.4258 112.205 41.22 113.464 36.1435C113.754 34.9767 113.603 32.5588 113.01 28.8898C112.598 26.3636 112.653 23.6088 113.173 20.6255C109.034 18.4121 103.745 18.5625 97.3061 21.0766C89.4513 24.1321 85.7962 29.5995 86.3408 37.4788L87.775 41.3222C88.0758 42.1376 88.0706 43.033 87.7601 43.8425C87.4497 44.6521 86.8552 45.3209 86.0867 45.725C80.8219 48.5038 77.8264 43.9206 76.9368 38.8141C77.3483 37.2863 77.076 36.4383 76.1199 36.2699C66.8006 34.682 57.7294 35.4939 48.9064 38.7058C36.3556 43.289 27.8291 51.842 23.3268 64.3647C23.2309 64.6364 23.239 64.9337 23.3495 65.2C23.46 65.4662 23.6651 65.6827 23.9259 65.8082C24.8336 66.2413 25.9228 66.1511 27.1937 65.5376C62.9942 67.1796 67.6236 113.319 33.8927 122.557C33.0454 122.473 32.168 122.563 31.2602 122.828C30.4493 123.069 30.407 123.405 31.1332 123.838L45.3662 132.5L49.8685 135.315C52.3012 136.83 52.6341 138.713 50.867 140.962L50.2861 141.702C49.6317 142.533 48.7033 143.107 47.6661 143.322C46.6289 143.536 45.5502 143.378 44.6219 142.875L30.3344 135.17C26.5825 139.32 26.4493 143.483 29.935 147.657C37.0152 156.174 50.8307 156.138 60.2529 152.33L64.265 150.778C64.789 150.582 65.3738 150.595 65.8989 150.815C91.4785 161.551 129.821 170.14 148.538 142.117C148.901 141.576 149.367 141.462 149.936 141.774C159.83 147.007 188.096 154.929 186.898 135.838C186.354 127.141 171.394 118.75 164.786 114.131C164.563 113.975 164.382 113.768 164.258 113.529C164.135 113.29 164.073 113.026 164.078 112.759C164.151 103.647 164.568 97.2593 160.302 88.9589C160.052 88.4723 159.658 88.0742 159.174 87.819C158.689 87.5638 158.139 87.4641 157.597 87.5335C150.093 88.4116 143.485 87.1726 137.772 83.8164C137.046 79.3775 139.188 75.4438 143.582 76.6167C155.237 79.7444 166.057 78.4873 176.042 72.8455C177.41 72.0756 177.313 71.6305 175.751 71.5102C165.549 70.7042 155.999 67.7931 147.104 62.7768C146.235 62.2906 145.594 61.4843 145.319 60.5322C145.044 59.58 145.157 58.5585 145.633 57.6883L146.105 56.7861C147.606 54.0314 149.736 53.3938 152.496 54.8734C167.6 62.9572 194.686 67.4503 206.233 51.2466C206.34 51.0916 206.401 50.9095 206.408 50.7215C206.415 50.5335 206.369 50.3474 206.274 50.1847C206.179 50.0221 206.039 49.8897 205.871 49.8029C205.703 49.7162 205.514 49.6786 205.325 49.6948C191.709 50.9338 178.844 48.5159 166.729 42.441C165.844 41.9952 165.151 41.2477 164.781 40.3379C164.41 39.4282 164.386 38.4183 164.714 37.4969L165.022 36.6307C166.124 33.491 168.187 32.6249 171.213 34.0324C185.083 40.4321 199.013 42.0019 213.004 38.7419C215.74 38.1164 217.876 37.0578 219.413 35.5661C220.271 34.7375 220.796 33.6263 220.89 32.4406C220.984 31.2548 220.639 30.0759 219.921 29.1243C210.553 16.7641 190.112 16.2769 176.314 18.5324C156.217 21.7803 143.073 32.4806 136.284 51.427C133.439 59.3544 132.447 66.9631 133.306 74.2529C133.724 77.8798 132.036 78.9625 129.058 80.3158ZM24.5998 113.214C27.0188 113.686 29.5098 113.668 31.9307 113.161C34.3516 112.655 36.6549 111.669 38.7091 110.262C40.7633 108.854 42.5282 107.051 43.903 104.957C45.2778 102.862 46.2356 100.517 46.7216 98.0545C47.2077 95.592 47.2126 93.0608 46.7359 90.6052C46.2593 88.1497 45.3105 85.8179 43.9437 83.7432C42.5769 81.6684 40.8188 79.8912 38.7699 78.513C36.721 77.1349 34.4214 76.1828 32.0024 75.7111C29.5834 75.2393 27.0923 75.2573 24.6714 75.7638C22.2505 76.2704 19.9472 77.2556 17.893 78.6632C15.8388 80.0709 14.0739 81.8735 12.6991 83.968C11.3243 86.0625 10.3666 88.4079 9.88049 90.8704C9.39442 93.3328 9.38957 95.8641 9.86623 98.3197C10.3429 100.775 11.2917 103.107 12.6585 105.182C14.0253 107.257 15.7833 109.034 17.8322 110.412C19.8811 111.79 22.1807 112.742 24.5998 113.214ZM173.5 98.2156C173.521 98.2572 173.555 98.2916 173.596 98.3143C173.637 98.3371 173.684 98.3471 173.73 98.3433C173.777 98.3394 173.822 98.3218 173.858 98.2926C173.895 98.2634 173.922 98.2241 173.936 98.1795L175.279 93.3798C175.294 93.3249 175.294 93.2671 175.279 93.2122C175.264 93.1574 175.235 93.1073 175.195 93.0672C175.154 93.027 175.104 92.9981 175.049 92.9833C174.993 92.9685 174.935 92.9683 174.88 92.9828L173.573 93.3437C173.436 93.3815 173.311 93.4549 173.213 93.5564C173.114 93.6579 173.044 93.7838 173.01 93.9211C172.586 95.4007 172.75 96.8323 173.5 98.2156ZM182.759 97.3676C182.742 97.2951 182.711 97.2268 182.666 97.167C182.622 97.1072 182.566 97.0571 182.501 97.0199C182.436 96.9826 182.365 96.959 182.29 96.9505C182.216 96.9421 182.141 96.9489 182.069 96.9706C180.823 97.3676 180.23 98.2517 180.29 99.6231C180.299 99.8321 180.372 100.033 180.501 100.199C180.629 100.365 180.806 100.487 181.008 100.548C181.209 100.61 181.424 100.607 181.624 100.542C181.824 100.476 181.999 100.351 182.124 100.182C182.777 99.3404 182.989 98.4021 182.759 97.3676ZM152.732 153.611C152.514 153.527 152.314 153.557 152.132 153.702L143.582 160.991C143.544 161.024 143.516 161.067 143.499 161.114C143.483 161.161 143.479 161.212 143.488 161.261C143.497 161.31 143.519 161.356 143.551 161.394C143.584 161.432 143.625 161.461 143.673 161.479C149.536 163.409 166.674 167.217 168.653 158.501C168.684 158.357 168.685 158.209 168.656 158.064C168.627 157.92 168.567 157.783 168.482 157.663C168.397 157.542 168.287 157.441 168.16 157.365C168.034 157.289 167.892 157.239 167.745 157.22C162.602 156.595 157.597 155.392 152.732 153.611Z"
        fill="#772106" />
    <path
        d="M39.2845 31.849C42.1408 25.2689 46.8731 20.824 53.4813 18.5143C53.6285 18.4609 53.7562 18.3647 53.8477 18.2381C53.9391 18.1116 53.9901 17.9606 53.994 17.8048C53.9979 17.6491 53.9546 17.4958 53.8696 17.3648C53.7846 17.2339 53.662 17.1315 53.5176 17.0708C53.336 16.9986 53.1303 16.9565 52.9003 16.9445L55.8777 16.5656C56.6039 16.4693 57.0516 16.7761 57.2211 17.4858L58.855 24.2704C58.9633 24.7131 58.8972 25.1797 58.6706 25.573C58.444 25.9663 58.0743 26.256 57.6386 26.3816L39.2845 31.849Z"
        fill="#F2668B" />
    <path
        d="M52.9003 16.9445C53.1303 16.9565 53.336 16.9986 53.5176 17.0708C53.662 17.1315 53.7846 17.2339 53.8696 17.3648C53.9546 17.4958 53.9979 17.6491 53.994 17.8048C53.9901 17.9606 53.9391 18.1116 53.8477 18.2381C53.7562 18.3647 53.6285 18.4609 53.4813 18.5143C46.8731 20.824 42.1408 25.2689 39.2845 31.849C38.1226 33.2204 36.64 34.2248 34.8367 34.8624C34.0984 35.115 33.8442 34.8684 34.0742 34.1226C36.9063 25.0884 43.1817 19.3624 52.9003 16.9445Z"
        fill="#FEFFFE" />
    <path
        d="M137.772 83.8164C134.964 84.2615 132.06 83.0946 129.058 80.3158C132.036 78.9625 133.724 77.8798 133.306 74.2529C132.447 66.9631 133.439 59.3544 136.284 51.427C143.073 32.4806 156.217 21.7803 176.314 18.5324C190.112 16.2769 210.553 16.7641 219.921 29.1243C220.639 30.0759 220.984 31.2548 220.89 32.4406C220.796 33.6263 220.271 34.7375 219.413 35.5661C217.876 37.0578 215.74 38.1164 213.004 38.7419C199.013 42.0019 185.083 40.4321 171.213 34.0324C168.187 32.6249 166.124 33.491 165.022 36.6307L164.714 37.4969C164.386 38.4183 164.41 39.4282 164.781 40.3379C165.151 41.2477 165.844 41.9952 166.729 42.441C178.844 48.5159 191.709 50.9338 205.325 49.6948C205.514 49.6786 205.703 49.7162 205.871 49.8029C206.039 49.8897 206.179 50.0221 206.274 50.1847C206.369 50.3474 206.415 50.5335 206.408 50.7215C206.401 50.9095 206.34 51.0916 206.233 51.2466C194.686 67.4503 167.6 62.9572 152.496 54.8734C149.736 53.3938 147.606 54.0314 146.105 56.7861L145.633 57.6883C145.157 58.5585 145.044 59.58 145.319 60.5322C145.594 61.4843 146.235 62.2906 147.104 62.7768C155.999 67.7931 165.549 70.7042 175.751 71.5102C177.313 71.6305 177.41 72.0756 176.042 72.8455C166.057 78.4873 155.237 79.7444 143.582 76.6167C139.188 75.4438 137.046 79.3775 137.772 83.8164Z"
        fill="#FEFFFE" />
    <path
        d="M113.173 20.6255C110.462 21.7202 106.365 22.6765 100.883 23.4945C94.3106 24.4689 89.4634 29.1304 86.3408 37.4788C85.7962 29.5995 89.4513 24.1321 97.3061 21.0766C103.745 18.5625 109.034 18.4121 113.173 20.6255Z"
        fill="#FEFFFE" />
    <path
        d="M113.173 20.6255C112.653 23.6088 112.598 26.3636 113.01 28.8898C113.603 32.5588 113.754 34.9767 113.464 36.1435C112.205 41.22 108.586 44.4258 102.607 45.7611C101.679 45.9694 100.867 46.5231 100.336 47.3084C99.8064 48.0937 99.599 49.0509 99.757 49.9835L99.884 50.7594C100.085 51.9613 100.754 53.0364 101.746 53.7523C102.738 54.4681 103.973 54.7671 105.185 54.5847C109.106 53.9953 112.562 52.4194 115.551 49.8571C116.108 49.376 116.695 49.3399 117.312 49.7489L124.338 54.4223C124.597 54.5945 124.795 54.8428 124.902 55.1315C125.01 55.4201 125.022 55.7341 124.937 56.0283C123.231 62.2174 120.108 79.6301 129.058 80.3158C132.06 83.0946 134.964 84.2615 137.772 83.8164C143.485 87.1726 150.093 88.4116 157.597 87.5335C158.139 87.4641 158.689 87.5638 159.174 87.819C159.658 88.0742 160.052 88.4723 160.302 88.9589C164.568 97.2593 164.151 103.647 164.078 112.759C164.073 113.026 164.135 113.29 164.258 113.529C164.382 113.768 164.563 113.975 164.786 114.131C171.394 118.75 186.354 127.141 186.898 135.838C188.096 154.929 159.83 147.007 149.936 141.774C149.367 141.462 148.901 141.576 148.538 142.117C129.821 170.14 91.4785 161.551 65.8989 150.815C65.3738 150.595 64.789 150.582 64.265 150.778L60.2529 152.33C58.4979 152.126 55.7082 152.03 51.8837 152.042C42.0258 152.042 29.935 147.115 30.3344 135.17L44.6219 142.875C45.5502 143.378 46.6289 143.536 47.6661 143.322C48.7033 143.107 49.6317 142.533 50.2861 141.702L50.867 140.962C52.6341 138.713 52.3012 136.83 49.8685 135.315L45.3662 132.5L33.8927 122.557C67.6236 113.319 62.9942 67.1796 27.1937 65.5376C36.7671 44.8589 53.3481 35.9511 76.9368 38.8141C77.8264 43.9206 80.8219 48.5038 86.0867 45.725C86.8552 45.3209 87.4497 44.6521 87.7601 43.8425C88.0706 43.033 88.0758 42.1376 87.775 41.3222L86.3408 37.4788C89.4634 29.1304 94.3106 24.4689 100.883 23.4945C106.365 22.6765 110.462 21.7202 113.173 20.6255ZM70.4194 49.7308L70.1107 50.615C69.8992 51.2379 69.9405 51.9179 70.2258 52.5085C70.511 53.0991 71.0173 53.5531 71.6357 53.7727C74.9398 54.9636 77.6509 56.9485 79.7689 59.7273C80.1194 60.1918 80.6315 60.5075 81.2031 60.6115C82.9217 60.9243 84.1804 60.4912 84.9792 59.3123C87.8295 55.126 79.1517 49.785 75.1395 47.8181C74.7063 47.6037 74.232 47.4832 73.7487 47.4649C73.2653 47.4466 72.784 47.5309 72.3369 47.712C71.8899 47.8932 71.4875 48.167 71.1568 48.5152C70.8261 48.8634 70.5746 49.2779 70.4194 49.7308ZM78.7704 73.2244C78.7704 70.7072 77.7643 68.293 75.9735 66.5131C74.1827 64.7331 71.7538 63.7331 69.2212 63.7331C66.6886 63.7331 64.2597 64.7331 62.4688 66.5131C60.678 68.293 59.6719 70.7072 59.6719 73.2244C59.6719 75.7416 60.678 78.1558 62.4688 79.9357C64.2597 81.7157 66.6886 82.7157 69.2212 82.7157C71.7538 82.7157 74.1827 81.7157 75.9735 79.9357C77.7643 78.1558 78.7704 75.7416 78.7704 73.2244ZM77.6993 98.2517C77.6833 98.143 77.6978 98.032 77.7413 97.931C77.7848 97.83 77.8556 97.7429 77.9458 97.6794C78.036 97.6159 78.1421 97.5785 78.2524 97.5712C78.3627 97.5639 78.4729 97.5871 78.5707 97.6382C81.0155 98.9133 82.8249 98.4201 83.9989 96.1586C84.1833 95.7999 84.2945 95.4085 84.3258 95.0072C84.357 94.6059 84.3079 94.2028 84.1811 93.8215C84.0543 93.4401 83.8525 93.0882 83.5875 92.7862C83.3224 92.4842 82.9994 92.2382 82.6373 92.0625C76.2711 88.971 70.613 89.6146 65.6629 93.9933C62.377 96.9165 64.6463 101.157 68.9489 99.569C69.7234 99.2802 70.1712 99.5449 70.2923 100.363C71.908 111.677 60.5797 118.966 50.4132 118.173C50.0231 118.145 49.6316 118.195 49.2619 118.32C48.8921 118.444 48.5515 118.639 48.2604 118.895C47.9692 119.151 47.7334 119.461 47.5668 119.808C47.4002 120.155 47.3063 120.532 47.2906 120.915L47.2725 121.673C47.1635 123.983 48.271 125.27 50.5947 125.535C66.2802 127.357 80.3135 114.275 77.6993 98.2517ZM96.7614 132.842C97.6087 133.047 97.7781 132.53 97.2698 131.291C97.1989 131.126 97.0842 130.993 96.943 130.912C91.1517 127.339 91.7508 119.76 97.9778 117.469C102.831 115.676 109.052 115.538 116.641 117.054C117.815 117.042 119.061 117.607 120.38 118.75C120.802 119.114 121.297 119.385 121.832 119.544C122.368 119.702 122.931 119.746 123.484 119.67C124.038 119.595 124.569 119.403 125.042 119.108C125.515 118.812 125.918 118.419 126.226 117.956C128.495 114.564 127.025 111.857 123.739 109.944C113.336 103.936 94.6555 100.237 84.9611 109.565C77.8445 116.404 76.6282 127.032 83.2909 134.701C89.9354 142.37 100.501 144.264 110.541 143.362C113.482 143.11 114.837 141.522 114.607 138.599L114.553 137.859C114.485 136.938 114.073 136.075 113.398 135.441C112.722 134.806 111.833 134.446 110.904 134.43C106.801 134.358 100.356 135.026 96.7614 132.842Z"
        fill="#F2668B" />
    <path
        d="M76.9368 38.8141C53.3481 35.9511 36.7671 44.8589 27.1937 65.5376C25.9228 66.1511 24.8336 66.2413 23.9259 65.8082C23.6651 65.6827 23.46 65.4662 23.3495 65.2C23.239 64.9337 23.2309 64.6364 23.3268 64.3647C27.8291 51.842 36.3556 43.289 48.9064 38.7058C57.7294 35.4939 66.8006 34.682 76.1199 36.2699C77.076 36.4383 77.3483 37.2863 76.9368 38.8141Z"
        fill="#FEFFFE" />
    <path
        d="M75.1395 47.8181C79.1517 49.785 87.8295 55.126 84.9792 59.3123C84.1804 60.4912 82.9217 60.9243 81.2031 60.6115C80.6315 60.5075 80.1194 60.1918 79.7689 59.7273C77.6509 56.9485 74.9398 54.9636 71.6357 53.7727C71.0173 53.5531 70.511 53.0991 70.2258 52.5085C69.9405 51.9179 69.8992 51.2379 70.1107 50.615L70.4194 49.7308C70.5746 49.2779 70.8261 48.8634 71.1568 48.5152C71.4875 48.167 71.8899 47.8932 72.3369 47.712C72.784 47.5309 73.2653 47.4466 73.7487 47.4649C74.232 47.4832 74.7063 47.6037 75.1395 47.8181Z"
        fill="#772106" />
    <path
        d="M78.7704 73.2244C78.7704 75.7416 77.7643 78.1558 75.9735 79.9357C74.1827 81.7157 71.7538 82.7157 69.2212 82.7157C66.6886 82.7157 64.2597 81.7157 62.4688 79.9357C60.678 78.1558 59.6719 75.7416 59.6719 73.2244C59.6719 70.7072 60.678 68.293 62.4688 66.5131C64.2597 64.7331 66.6886 63.7331 69.2212 63.7331C71.7538 63.7331 74.1827 64.7331 75.9735 66.5131C77.7643 68.293 78.7704 70.7072 78.7704 73.2244ZM69.9473 72.4846C69.9473 72.0604 69.8633 71.6404 69.7 71.2486C69.5367 70.8567 69.2973 70.5006 68.9955 70.2007C68.6938 69.9008 68.3355 69.6629 67.9413 69.5005C67.547 69.3382 67.1244 69.2547 66.6977 69.2547C65.8358 69.2547 65.0093 69.595 64.3998 70.2007C63.7904 70.8064 63.4481 71.6279 63.4481 72.4846C63.4481 73.3412 63.7904 74.1628 64.3998 74.7685C65.0093 75.3742 65.8358 75.7145 66.6977 75.7145C67.1244 75.7145 67.547 75.631 67.9413 75.4686C68.3355 75.3063 68.6938 75.0684 68.9955 74.7685C69.2973 74.4686 69.5367 74.1125 69.7 73.7206C69.8633 73.3288 69.9473 72.9087 69.9473 72.4846Z"
        fill="#772106" />
    <path
        d="M235.997 72.401L219.787 65.5621C218.117 64.8573 216.188 65.632 215.479 67.2924L215.393 67.4917C214.684 69.152 215.464 71.0694 217.134 71.7742L233.344 78.6131C235.015 79.3179 236.944 78.5432 237.653 76.8828L237.738 76.6835C238.447 75.0232 237.668 73.1058 235.997 72.401Z"
        fill="#772106" />
    <path
        d="M66.6977 75.7145C68.4924 75.7145 69.9473 74.2684 69.9473 72.4846C69.9473 70.7007 68.4924 69.2547 66.6977 69.2547C64.903 69.2547 63.4481 70.7007 63.4481 72.4846C63.4481 74.2684 64.903 75.7145 66.6977 75.7145Z"
        fill="#FEFFFE" />
    <path
        d="M24.5998 113.214C22.1807 112.742 19.8811 111.79 17.8322 110.412C15.7833 109.034 14.0253 107.257 12.6585 105.182C11.2917 103.107 10.3429 100.775 9.86623 98.3197C9.38957 95.8641 9.39442 93.3328 9.88049 90.8704C10.3666 88.4079 11.3243 86.0625 12.6991 83.968C14.0739 81.8735 15.8388 80.0709 17.893 78.6632C19.9472 77.2556 22.2505 76.2704 24.6714 75.7638C27.0923 75.2573 29.5834 75.2393 32.0024 75.7111C34.4214 76.1828 36.721 77.1349 38.7699 78.513C40.8188 79.8912 42.5769 81.6684 43.9437 83.7432C45.3105 85.8179 46.2593 88.1497 46.7359 90.6052C47.2126 93.0608 47.2077 95.592 46.7216 98.0545C46.2356 100.517 45.2778 102.862 43.903 104.957C42.5282 107.051 40.7633 108.854 38.7091 110.262C36.6549 111.669 34.3516 112.655 31.9307 113.161C29.5098 113.668 27.0188 113.686 24.5998 113.214ZM18.182 103.502C19.8046 103.514 21.3671 102.601 22.526 100.964C23.6849 99.3273 24.3451 97.1012 24.3614 94.7755C24.3695 93.6239 24.2193 92.4825 23.9193 91.4164C23.6193 90.3503 23.1754 89.3805 22.613 88.5622C22.0507 87.744 21.3808 87.0934 20.6416 86.6476C19.9025 86.2017 19.1085 85.9694 18.3051 85.9638C16.6825 85.9526 15.1199 86.8657 13.9611 88.5023C12.8022 90.1389 12.142 92.3649 12.1257 94.6907C12.1176 95.8423 12.2678 96.9837 12.5678 98.0498C12.8678 99.1158 13.3116 100.086 13.874 100.904C14.4364 101.722 15.1063 102.373 15.8455 102.819C16.5846 103.264 17.3786 103.497 18.182 103.502ZM34.8158 103.485C36.4529 103.482 38.0212 102.557 39.1759 100.914C40.3305 99.2705 40.977 97.0435 40.9729 94.7225C40.9709 93.5732 40.8092 92.4354 40.4972 91.3742C40.1851 90.313 39.7287 89.349 39.1541 88.5373C38.5795 87.7256 37.8979 87.0822 37.1483 86.6437C36.3986 86.2052 35.5956 85.9802 34.785 85.9817C33.1479 85.9845 31.5796 86.9093 30.4249 88.5525C29.2702 90.1957 28.6238 92.4227 28.6279 94.7437C28.6299 95.893 28.7915 97.0308 29.1036 98.092C29.4157 99.1533 29.872 100.117 30.4466 100.929C31.0212 101.741 31.7028 102.384 32.4525 102.823C33.2022 103.261 34.0052 103.486 34.8158 103.485Z"
        fill="#FAA3BA" />
    <path
        d="M12.1257 94.6907C12.0917 99.5338 14.8032 103.479 18.182 103.502C21.5608 103.526 24.3274 99.6186 24.3614 94.7755C24.3954 89.9324 21.6839 85.9872 18.3051 85.9638C14.9263 85.9403 12.1597 89.8475 12.1257 94.6907Z"
        fill="#772106" />
    <path
        d="M28.6279 94.7437C28.6364 99.577 31.4068 103.49 34.8158 103.485C38.2248 103.479 40.9814 99.5557 40.9729 94.7225C40.9644 89.8892 38.1939 85.9757 34.785 85.9817C31.376 85.9876 28.6194 89.9105 28.6279 94.7437Z"
        fill="#772106" />
    <path
        d="M77.6993 98.2517C80.3135 114.275 66.2802 127.357 50.5947 125.535C48.271 125.27 47.1635 123.983 47.2725 121.673L47.2906 120.915C47.3063 120.532 47.4002 120.155 47.5668 119.808C47.7334 119.461 47.9692 119.151 48.2604 118.895C48.5515 118.639 48.8921 118.444 49.2619 118.32C49.6316 118.195 50.0231 118.145 50.4132 118.173C60.5797 118.966 71.908 111.677 70.2923 100.363C70.1712 99.5449 69.7234 99.2802 68.9489 99.569C64.6463 101.157 62.377 96.9165 65.6629 93.9933C70.613 89.6146 76.2711 88.971 82.6373 92.0625C82.9994 92.2382 83.3224 92.4842 83.5875 92.7862C83.8525 93.0882 84.0543 93.4401 84.1811 93.8215C84.3079 94.2028 84.357 94.6059 84.3258 95.0072C84.2945 95.4085 84.1833 95.7999 83.9989 96.1586C82.8249 98.4201 81.0155 98.9133 78.5707 97.6382C78.4729 97.5871 78.3627 97.5639 78.2524 97.5712C78.1421 97.5785 78.036 97.6159 77.9458 97.6794C77.8556 97.7429 77.7848 97.83 77.7413 97.931C77.6978 98.032 77.6833 98.143 77.6993 98.2517Z"
        fill="#772106" />
    <path
        d="M173.5 98.2156C172.75 96.8323 172.586 95.4007 173.01 93.9211C173.044 93.7838 173.114 93.6579 173.213 93.5564C173.311 93.4549 173.436 93.3815 173.573 93.3437L174.88 92.9828C174.935 92.9683 174.993 92.9685 175.049 92.9833C175.104 92.9981 175.154 93.027 175.195 93.0672C175.235 93.1073 175.264 93.1574 175.279 93.2122C175.294 93.2671 175.294 93.3249 175.279 93.3798L173.936 98.1795C173.922 98.2241 173.895 98.2634 173.858 98.2926C173.822 98.3218 173.777 98.3394 173.73 98.3433C173.684 98.3471 173.637 98.3371 173.596 98.3143C173.555 98.2916 173.521 98.2572 173.5 98.2156Z"
        fill="#F2668B" />
    <path
        d="M182.759 97.3676C182.989 98.4021 182.777 99.3404 182.124 100.182C181.999 100.351 181.824 100.476 181.624 100.542C181.424 100.607 181.209 100.61 181.008 100.548C180.806 100.487 180.629 100.365 180.501 100.199C180.372 100.033 180.299 99.8321 180.29 99.6231C180.23 98.2517 180.823 97.3676 182.069 96.9706C182.141 96.9489 182.216 96.9421 182.29 96.9505C182.365 96.959 182.436 96.9826 182.501 97.0199C182.566 97.0571 182.622 97.1072 182.666 97.167C182.711 97.2268 182.742 97.2951 182.759 97.3676Z"
        fill="#F2668B" />
    <path
        d="M116.641 117.054C110.952 113.89 105.149 112.657 99.2304 113.355C86.6494 114.834 84.253 128.458 96.7614 132.842C100.356 135.026 106.801 134.358 110.904 134.43C111.833 134.446 112.722 134.806 113.398 135.441C114.073 136.075 114.485 136.938 114.553 137.859L114.607 138.599C114.837 141.522 113.482 143.11 110.541 143.362C100.501 144.264 89.9354 142.37 83.2909 134.701C76.6282 127.032 77.8445 116.404 84.9611 109.565C94.6555 100.237 113.336 103.936 123.739 109.944C127.025 111.857 128.495 114.564 126.226 117.956C125.918 118.419 125.515 118.812 125.042 119.108C124.569 119.403 124.038 119.595 123.484 119.67C122.931 119.746 122.368 119.702 121.832 119.544C121.297 119.385 120.802 119.114 120.38 118.75C119.061 117.607 117.815 117.042 116.641 117.054Z"
        fill="#772106" />
    <path
        d="M225.147 117.063L204.77 108.715C203.083 108.024 201.152 108.823 200.456 110.5L200.373 110.7C199.678 112.377 200.482 114.297 202.169 114.988L222.546 123.335C224.233 124.027 226.164 123.227 226.859 121.551L226.942 121.35C227.638 119.674 226.834 117.754 225.147 117.063Z"
        fill="#772106" />
    <path
        d="M116.641 117.054C109.052 115.538 102.831 115.676 97.9778 117.469C91.7508 119.76 91.1517 127.339 96.943 130.912C97.0842 130.993 97.1989 131.126 97.2698 131.291C97.7781 132.53 97.6087 133.047 96.7614 132.842C84.253 128.458 86.6494 114.834 99.2304 113.355C105.149 112.657 110.952 113.89 116.641 117.054Z"
        fill="#FEFFFE" />
    <path
        d="M33.8927 122.557L45.3662 132.5L31.1332 123.838C30.407 123.405 30.4493 123.069 31.2602 122.828C32.168 122.563 33.0454 122.473 33.8927 122.557Z"
        fill="#FEFFFE" />
    <path
        d="M30.3344 135.17C29.935 147.115 42.0258 152.042 51.8837 152.042C55.7082 152.03 58.4979 152.126 60.2529 152.33C50.8307 156.138 37.0152 156.174 29.935 147.657C26.4493 143.483 26.5825 139.32 30.3344 135.17Z"
        fill="#FEFFFE" />
    <path
        d="M152.732 153.611C157.597 155.392 162.602 156.595 167.745 157.22C167.892 157.239 168.034 157.289 168.16 157.365C168.287 157.441 168.397 157.542 168.482 157.663C168.567 157.783 168.627 157.92 168.656 158.064C168.685 158.209 168.684 158.357 168.653 158.501C166.674 167.217 149.536 163.409 143.673 161.479C143.625 161.461 143.584 161.432 143.551 161.394C143.519 161.356 143.497 161.31 143.488 161.261C143.479 161.212 143.483 161.161 143.499 161.114C143.516 161.067 143.544 161.024 143.582 160.991L152.132 153.702C152.314 153.557 152.514 153.527 152.732 153.611Z"
        fill="#F2668B" />
    <path
        d="M209.047 174.838L184.116 164.977C182.44 164.314 180.539 165.127 179.872 166.794L179.805 166.961C179.138 168.628 179.956 170.517 181.633 171.18L206.564 181.041C208.24 181.704 210.141 180.891 210.808 179.224L210.875 179.056C211.542 177.39 210.724 175.501 209.047 174.838Z"
        fill="#772106" />
    <path
        d="M91.5962 177.572L64.8662 166.838C63.1929 166.166 61.2883 166.97 60.6122 168.633L60.5442 168.8C59.8682 170.464 60.6766 172.357 62.3499 173.029L89.08 183.763C90.7533 184.435 92.6579 183.631 93.3339 181.968L93.402 181.801C94.078 180.137 93.2696 178.244 91.5962 177.572Z"
        fill="#772106" />
</svg>
    