<svg xmlns="http://www.w3.org/2000/svg" xmlns:xlink="http://www.w3.org/1999/xlink" width="483" zoomAndPan="magnify" viewBox="0 0 362.25 101.999999" height="136" preserveAspectRatio="xMidYMid meet" version="1.0"><defs><g/><clipPath id="c0fcc63766"><path d="M 65 69 L 86 69 L 86 83 L 65 83 Z M 65 69 " clip-rule="nonzero"/></clipPath><clipPath id="1a4d1fd08a"><path d="M 67.585938 64.957031 L 86.890625 73.699219 L 81.671875 85.230469 L 62.367188 76.492188 Z M 67.585938 64.957031 " clip-rule="nonzero"/></clipPath><clipPath id="6edb55fe78"><path d="M 67.71875 69.886719 C 69.175781 75.078125 69.625 75.28125 70.191406 75.628906 C 70.910156 76.042969 71.945312 76.964844 72.898438 76.851562 C 74.039062 76.734375 76.480469 74.941406 76.394531 74.539062 C 76.3125 74.320312 75.375 73.988281 75.011719 74.1875 C 74.507812 74.5 74.054688 76.105469 74.308594 76.945312 C 74.566406 77.96875 76.214844 79.53125 77.261719 79.824219 C 78.15625 80.046875 79.207031 79.527344 79.964844 79.054688 C 80.722656 78.582031 81.429688 77.816406 81.914062 76.949219 C 82.535156 75.78125 82.429688 73.015625 83.078125 72.582031 C 83.4375 72.382812 84.109375 72.503906 84.414062 72.828125 C 84.722656 73.148438 85.019531 74.097656 84.8125 74.546875 C 84.609375 74.996094 83.667969 75.476562 83.257812 75.382812 C 82.847656 75.289062 82.15625 74.613281 82.101562 74.132812 C 82.046875 73.65625 82.605469 72.824219 82.96875 72.625 C 83.328125 72.425781 83.957031 72.4375 84.265625 72.757812 C 84.878906 73.398438 85.316406 76.042969 84.820312 77.539062 C 84.328125 79.21875 82.488281 81.285156 80.964844 82.046875 C 79.664062 82.722656 77.859375 82.902344 76.554688 82.585938 C 75.25 82.265625 73.773438 81.324219 72.992188 80.246094 C 72.171875 79.058594 71.609375 76.902344 71.886719 75.488281 C 72.164062 74.074219 73.5625 71.988281 74.730469 71.613281 C 75.679688 71.316406 77.449219 72.207031 78.132812 72.699219 C 78.546875 72.980469 78.746094 73.339844 78.878906 73.851562 C 78.980469 74.625 78.746094 76.148438 78.152344 77.058594 C 77.523438 78.042969 76.003906 78.800781 74.910156 79.214844 C 73.960938 79.507812 72.972656 79.695312 71.925781 79.402344 C 70.394531 78.980469 67.976562 77.523438 66.847656 76.015625 C 65.71875 74.507812 64.96875 71.359375 65.292969 70.238281 C 65.492188 69.605469 66.097656 69.0625 66.542969 69.082031 C 66.910156 69.070312 67.71875 69.886719 67.71875 69.886719 " clip-rule="nonzero"/></clipPath><clipPath id="f2314f3087"><path d="M 48.226562 33.296875 L 61.808594 33.296875 L 61.808594 47.5 L 48.226562 47.5 Z M 48.226562 33.296875 " clip-rule="nonzero"/></clipPath><clipPath id="acb53b7d6e"><path d="M 51.984375 46.539062 C 48.242188 34.875 48.464844 34.324219 49.015625 33.996094 C 50.003906 33.335938 53.085938 33.335938 54.734375 33.664062 C 56.167969 33.996094 57.375 34.65625 58.476562 35.753906 C 59.796875 37.074219 61.777344 40.265625 61.449219 41.257812 C 61.226562 41.808594 59.578125 42.246094 59.355469 42.027344 C 59.136719 41.808594 59.355469 40.597656 59.6875 40.378906 C 60.015625 40.15625 61.117188 40.488281 61.226562 40.816406 C 61.335938 41.148438 60.347656 42.46875 59.796875 42.359375 C 58.917969 42.246094 58.035156 38.285156 56.9375 37.1875 C 56.167969 36.414062 55.507812 35.976562 54.625 35.753906 C 53.527344 35.535156 50.996094 35.316406 50.445312 36.195312 C 49.5625 37.625 54.296875 44.117188 54.074219 45.878906 C 53.964844 46.539062 53.527344 47.199219 53.195312 47.308594 C 52.867188 47.417969 51.984375 46.539062 51.984375 46.539062 " clip-rule="nonzero"/></clipPath><clipPath id="1b5894632c"><path d="M 67.652344 33.292969 L 82.472656 33.292969 L 82.472656 48.867188 L 67.652344 48.867188 Z M 67.652344 33.292969 " clip-rule="nonzero"/></clipPath><clipPath id="2545bf2836"><path d="M 67.828125 41.367188 C 73.773438 34.214844 74.320312 33.996094 75.3125 33.773438 C 76.632812 33.445312 78.941406 33.335938 80.152344 33.773438 C 81.035156 34.105469 81.695312 34.65625 82.023438 35.535156 C 82.464844 36.855469 82.242188 39.605469 81.253906 41.585938 C 79.933594 44.117188 74.761719 48.847656 73.222656 48.847656 C 72.5625 48.847656 71.789062 47.859375 71.902344 47.527344 C 72.011719 47.199219 73.550781 46.757812 73.773438 46.980469 C 73.992188 47.199219 73.332031 48.847656 73 48.847656 C 72.671875 48.847656 71.789062 47.96875 71.902344 47.308594 C 72.121094 45.769531 78.0625 42.796875 79.382812 40.597656 C 80.261719 39.167969 80.921875 37.296875 80.375 36.527344 C 79.714844 35.644531 76.082031 35.425781 74.320312 36.304688 C 72.339844 37.296875 70.582031 42.246094 69.371094 42.90625 C 68.820312 43.238281 68.269531 43.238281 68.050781 43.019531 C 67.71875 42.796875 67.828125 41.367188 67.828125 41.367188 " clip-rule="nonzero"/></clipPath><clipPath id="bc004ea9af"><path d="M 51.386719 35.511719 L 57.949219 35.511719 L 57.949219 42 L 51.386719 42 Z M 51.386719 35.511719 " clip-rule="nonzero"/></clipPath><clipPath id="6b6ab261ee"><path d="M 57.925781 37.847656 C 55.175781 42.246094 52.535156 41.476562 51.984375 40.488281 C 51.433594 39.496094 51.875 36.855469 52.753906 36.195312 C 53.636719 35.535156 57.15625 36.414062 57.15625 36.414062 " clip-rule="nonzero"/></clipPath><clipPath id="15a080721c"><path d="M 52.046875 37.464844 L 58.609375 37.464844 L 58.609375 44 L 52.046875 44 Z M 52.046875 37.464844 " clip-rule="nonzero"/></clipPath><clipPath id="1a43b18d9e"><path d="M 58.585938 39.71875 C 55.835938 44.117188 53.195312 43.347656 52.644531 42.46875 C 52.09375 41.585938 52.535156 38.835938 53.414062 38.175781 C 54.296875 37.515625 57.816406 38.398438 57.816406 38.398438 " clip-rule="nonzero"/></clipPath><clipPath id="8fe5dc289d"><path d="M 52 37.511719 L 59.066406 37.511719 L 59.066406 47.972656 L 52 47.972656 Z M 52 37.511719 " clip-rule="nonzero"/></clipPath><clipPath id="3d69b17859"><path d="M 58.808594 40.816406 C 57.925781 47.089844 57.265625 47.527344 56.605469 47.640625 C 55.726562 47.859375 54.296875 47.527344 53.527344 46.980469 C 52.867188 46.429688 52.207031 45 52.316406 44.117188 C 52.425781 43.238281 53.304688 41.917969 54.074219 41.476562 C 54.847656 41.039062 56.386719 40.925781 57.15625 41.367188 C 58.035156 41.808594 59.027344 43.019531 59.027344 44.007812 C 59.027344 45.109375 57.925781 47.089844 56.9375 47.527344 C 56.054688 47.96875 54.625 47.75 53.855469 47.199219 C 53.085938 46.648438 52.535156 45.546875 52.316406 44.449219 C 51.984375 43.019531 51.984375 40.15625 52.867188 39.058594 C 53.527344 38.175781 55.394531 37.515625 56.386719 37.847656 C 57.375 38.175781 58.808594 40.816406 58.808594 40.816406 " clip-rule="nonzero"/></clipPath><clipPath id="9377970176"><path d="M 53.375 37.015625 L 60.597656 37.015625 L 60.597656 44.167969 L 53.375 44.167969 Z M 53.375 37.015625 " clip-rule="nonzero"/></clipPath><clipPath id="b31c023298"><path d="M 59.027344 37.957031 C 60.238281 42.46875 59.6875 43.128906 59.027344 43.457031 C 58.257812 43.898438 56.828125 44.117188 55.945312 43.789062 C 55.066406 43.457031 54.1875 42.359375 53.964844 41.476562 C 53.746094 40.597656 54.074219 39.167969 54.734375 38.507812 C 55.394531 37.847656 56.828125 37.40625 57.707031 37.515625 C 58.585938 37.625 59.6875 38.507812 60.128906 39.277344 C 60.566406 40.15625 60.457031 41.699219 60.015625 42.46875 C 59.578125 43.238281 58.257812 44.007812 57.375 44.007812 C 56.386719 44.007812 54.734375 43.238281 54.1875 42.46875 C 53.636719 41.699219 53.414062 40.265625 53.746094 39.386719 C 54.074219 38.507812 55.175781 37.515625 56.054688 37.296875 C 56.828125 37.074219 58.367188 37.625 58.367188 37.625 " clip-rule="nonzero"/></clipPath><clipPath id="2323c312b3"><path d="M 67.539062 36 L 78.847656 36 L 78.847656 46 L 67.539062 46 Z M 67.539062 36 " clip-rule="nonzero"/></clipPath><clipPath id="76450c5d6f"><path d="M 69.261719 39.9375 C 75.3125 36.085938 75.972656 35.976562 76.632812 36.304688 C 77.511719 36.746094 78.832031 38.617188 78.832031 39.71875 C 78.832031 40.707031 77.953125 42.027344 77.183594 42.46875 C 76.414062 42.90625 74.871094 43.019531 73.992188 42.578125 C 73.109375 42.136719 72.339844 40.925781 72.121094 40.046875 C 71.902344 39.277344 72.011719 38.507812 72.449219 37.847656 C 72.890625 37.074219 74.210938 36.195312 75.203125 36.085938 C 76.082031 35.976562 77.511719 36.636719 78.0625 37.296875 C 78.613281 37.847656 78.832031 38.617188 78.832031 39.386719 C 78.832031 40.265625 78.28125 41.367188 77.511719 42.246094 C 76.300781 43.566406 73.441406 45.988281 71.679688 45.988281 C 70.25 45.988281 68.269531 44.667969 67.941406 43.566406 C 67.609375 42.578125 69.261719 39.9375 69.261719 39.9375 " clip-rule="nonzero"/></clipPath><clipPath id="9626373c17"><path d="M 71.632812 39 L 78.195312 39 L 78.195312 45 L 71.632812 45 Z M 71.632812 39 " clip-rule="nonzero"/></clipPath><clipPath id="cdc879b77b"><path d="M 78.171875 40.925781 C 75.421875 45.4375 72.78125 44.667969 72.230469 43.679688 C 71.679688 42.6875 72.121094 40.046875 73 39.386719 C 73.882812 38.726562 77.402344 39.605469 77.402344 39.605469 " clip-rule="nonzero"/></clipPath><clipPath id="98ef51a2e4"><path d="M 71.328125 34.746094 L 80.632812 34.746094 L 80.632812 44.582031 L 71.328125 44.582031 Z M 71.328125 34.746094 " clip-rule="nonzero"/></clipPath><clipPath id="0b050a52ae"><path d="M 72.449219 38.835938 C 76.632812 34.875 77.953125 34.875 78.722656 35.425781 C 79.601562 35.976562 80.484375 38.175781 80.261719 39.167969 C 80.042969 40.265625 78.171875 41.585938 77.074219 41.699219 C 76.191406 41.808594 74.761719 41.039062 74.320312 40.265625 C 73.773438 39.386719 73.773438 37.074219 74.433594 36.195312 C 74.980469 35.425781 76.414062 34.765625 77.402344 34.984375 C 78.503906 35.207031 80.152344 36.527344 80.375 37.738281 C 80.59375 39.277344 78.28125 42.46875 77.183594 43.566406 C 76.523438 44.226562 75.863281 44.558594 75.09375 44.558594 C 74.101562 44.558594 72.230469 43.566406 71.789062 42.578125 C 71.351562 41.585938 72.449219 38.835938 72.449219 38.835938 " clip-rule="nonzero"/></clipPath><clipPath id="a19e30f892"><path d="M 49.082031 34.355469 L 54 34.355469 L 54 49.371094 L 49.082031 49.371094 Z M 49.082031 34.355469 " clip-rule="nonzero"/></clipPath><clipPath id="264d7f0c34"><path d="M 51.984375 35.867188 C 51.765625 42.796875 54.1875 46.867188 53.855469 48.1875 C 53.746094 48.738281 53.195312 49.179688 52.753906 49.179688 C 52.316406 49.179688 51.433594 48.628906 51.433594 48.300781 C 51.433594 47.859375 52.644531 46.648438 53.085938 46.757812 C 53.414062 46.757812 53.855469 47.640625 53.855469 48.078125 C 53.855469 48.519531 53.195312 49.070312 52.867188 49.179688 C 52.425781 49.289062 51.984375 48.960938 51.546875 48.410156 C 50.554688 47.089844 49.34375 42.136719 49.234375 39.71875 C 49.125 37.957031 49.453125 35.753906 50.003906 34.984375 C 50.335938 34.65625 50.886719 34.433594 51.214844 34.546875 C 51.546875 34.65625 51.984375 35.867188 51.984375 35.867188 " clip-rule="nonzero"/></clipPath><clipPath id="d63bab4fc1"><path d="M 51 35.296875 L 55.96875 35.296875 L 55.96875 38 L 51 38 Z M 51 35.296875 " clip-rule="nonzero"/></clipPath><clipPath id="3c761d1a59"><path d="M 52.425781 35.316406 C 55.945312 36.527344 55.066406 37.847656 54.734375 37.847656 C 54.40625 37.847656 53.636719 36.855469 53.746094 36.527344 C 53.855469 36.195312 55.066406 35.535156 55.394531 35.753906 C 55.726562 35.976562 55.835938 37.296875 55.507812 37.625 C 54.957031 38.066406 51.984375 37.738281 51.433594 37.1875 C 51.105469 36.855469 50.996094 36.085938 51.214844 35.753906 C 51.433594 35.425781 52.425781 35.316406 52.425781 35.316406 " clip-rule="nonzero"/></clipPath><clipPath id="2f010fe194"><path d="M 52.304688 35.179688 L 54.644531 35.179688 L 54.644531 36.871094 L 52.304688 36.871094 Z M 52.304688 35.179688 " clip-rule="nonzero"/></clipPath><clipPath id="17b41a5a70"><path d="M 54.625 35.644531 C 52.644531 36.855469 52.316406 35.867188 52.535156 35.535156 C 52.753906 35.207031 54.296875 35.207031 54.296875 35.207031 " clip-rule="nonzero"/></clipPath><clipPath id="8c463fde82"><path d="M 52.746094 36 L 54.976562 36 L 54.976562 38 L 52.746094 38 Z M 52.746094 36 " clip-rule="nonzero"/></clipPath><clipPath id="75ea38a8d5"><path d="M 54.957031 36.746094 C 54.074219 38.175781 53.195312 37.957031 52.976562 37.625 C 52.753906 37.296875 52.867188 36.414062 53.195312 36.195312 C 53.527344 35.976562 54.734375 36.304688 54.734375 36.304688 " clip-rule="nonzero"/></clipPath><clipPath id="470dc81d4d"><path d="M 52.847656 35.628906 L 55.210938 35.628906 L 55.210938 38.328125 L 52.847656 38.328125 Z M 52.847656 35.628906 " clip-rule="nonzero"/></clipPath><clipPath id="93f350eaa3"><path d="M 52.867188 36.746094 C 53.964844 35.644531 55.066406 36.855469 54.957031 37.1875 C 54.847656 37.515625 53.414062 37.738281 53.085938 37.515625 C 52.867188 37.296875 52.867188 36.085938 53.195312 35.867188 C 53.527344 35.644531 54.957031 36.304688 55.066406 36.746094 C 55.175781 37.074219 54.515625 38.066406 54.074219 38.175781 C 53.746094 38.285156 52.867188 37.40625 52.867188 37.40625 " clip-rule="nonzero"/></clipPath><clipPath id="2235e6226b"><path d="M 52.738281 34.433594 L 55.082031 34.433594 L 55.082031 37.207031 L 52.738281 37.207031 Z M 52.738281 34.433594 " clip-rule="nonzero"/></clipPath><clipPath id="7f43933d83"><path d="M 55.066406 36.085938 C 53.527344 37.1875 52.753906 35.976562 52.867188 35.644531 C 52.976562 35.316406 54.515625 35.09375 54.734375 35.316406 C 54.957031 35.535156 54.296875 37.1875 53.964844 37.1875 C 53.636719 37.1875 52.753906 36.195312 52.753906 35.753906 C 52.753906 35.316406 53.304688 34.65625 53.636719 34.546875 C 54.074219 34.433594 55.066406 35.207031 55.066406 35.207031 " clip-rule="nonzero"/></clipPath><clipPath id="cef27267c7"><path d="M 77.804688 35.1875 L 80 35.1875 L 80 37.421875 L 77.804688 37.421875 Z M 77.804688 35.1875 " clip-rule="nonzero"/></clipPath><clipPath id="23ed01567d"><path d="M 79.164062 35.207031 C 80.261719 36.746094 79.714844 37.40625 79.382812 37.40625 C 78.941406 37.40625 78.0625 36.527344 78.0625 36.195312 C 78.0625 35.867188 79.382812 35.207031 79.714844 35.425781 C 80.042969 35.644531 80.042969 36.964844 79.824219 37.1875 C 79.492188 37.40625 78.0625 36.964844 77.953125 36.636719 C 77.84375 36.304688 78.941406 35.207031 78.941406 35.207031 " clip-rule="nonzero"/></clipPath><clipPath id="7e4eb0bd1f"><path d="M 76.410156 35.203125 L 80.496094 35.203125 L 80.496094 39.304688 L 76.410156 39.304688 Z M 76.410156 35.203125 " clip-rule="nonzero"/></clipPath><clipPath id="1cc135314d"><path d="M 80.484375 36.527344 C 77.621094 39.058594 76.414062 38.066406 76.523438 37.738281 C 76.632812 37.40625 77.953125 36.964844 78.28125 37.1875 C 78.613281 37.40625 78.503906 38.835938 78.171875 39.058594 C 77.84375 39.277344 76.742188 38.945312 76.632812 38.617188 C 76.523438 38.285156 77.511719 36.964844 77.84375 36.964844 C 78.171875 36.964844 78.722656 38.398438 78.503906 38.726562 C 78.28125 39.058594 77.183594 39.167969 76.851562 38.945312 C 76.523438 38.726562 76.414062 38.175781 76.523438 37.738281 C 76.742188 36.964844 78.0625 35.316406 78.832031 35.207031 C 79.382812 35.207031 80.484375 36.527344 80.484375 36.527344 " clip-rule="nonzero"/></clipPath><clipPath id="413e128443"><path d="M 68.570312 36.269531 L 79.339844 36.269531 L 79.339844 44.683594 L 68.570312 44.683594 Z M 68.570312 36.269531 " clip-rule="nonzero"/></clipPath><clipPath id="aa971033dd"><path d="M 79.054688 38.507812 C 74.871094 41.917969 74.542969 40.046875 74.101562 40.046875 C 73.550781 40.046875 73.109375 42.46875 72.671875 42.46875 C 72.230469 42.46875 71.351562 41.367188 71.460938 40.925781 C 71.570312 40.378906 73.992188 39.386719 74.210938 39.605469 C 74.320312 39.71875 73.992188 40.265625 73.773438 40.707031 C 73.222656 41.585938 71.570312 43.898438 70.582031 44.339844 C 70.03125 44.558594 69.148438 44.558594 68.929688 44.226562 C 68.710938 43.898438 69.148438 42.46875 69.480469 42.46875 C 69.808594 42.46875 70.800781 43.898438 70.691406 44.226562 C 70.582031 44.449219 69.699219 44.667969 69.371094 44.558594 C 69.039062 44.449219 68.601562 43.898438 68.710938 43.347656 C 68.820312 42.136719 72.339844 38.835938 73.773438 38.175781 C 74.433594 37.847656 75.203125 37.738281 75.640625 38.066406 C 76.082031 38.398438 76.414062 40.046875 76.082031 40.707031 C 75.640625 41.585938 73.550781 42.578125 72.671875 42.46875 C 72.121094 42.359375 71.351562 41.808594 71.351562 41.367188 C 71.351562 40.597656 74.101562 38.507812 74.980469 38.507812 C 75.53125 38.507812 76.191406 39.277344 76.300781 39.828125 C 76.414062 40.707031 75.3125 43.128906 74.652344 43.347656 C 74.210938 43.457031 73.332031 42.90625 73.222656 42.359375 C 73 41.476562 74.652344 39.386719 75.640625 38.398438 C 76.523438 37.515625 78.503906 36.304688 78.941406 36.527344 C 79.273438 36.746094 79.054688 38.507812 79.054688 38.507812 " clip-rule="nonzero"/></clipPath><clipPath id="296c874342"><path d="M 52.058594 41.652344 L 55.539062 41.652344 L 55.539062 46.355469 L 52.058594 46.355469 Z M 52.058594 41.652344 " clip-rule="nonzero"/></clipPath><clipPath id="6783b753c5"><path d="M 53.085938 46.097656 C 52.535156 42.027344 54.1875 42.136719 54.296875 42.46875 C 54.40625 42.796875 53.636719 44.007812 53.304688 44.007812 C 52.976562 44.007812 52.09375 43.238281 52.09375 42.90625 C 52.09375 42.578125 53.195312 41.699219 53.636719 41.808594 C 54.296875 42.027344 55.507812 45.21875 55.175781 45.878906 C 54.957031 46.320312 53.085938 46.097656 53.085938 46.097656 " clip-rule="nonzero"/></clipPath><clipPath id="efae8be62a"><path d="M 77.375 34.976562 L 80.300781 34.976562 L 80.300781 41.714844 L 77.375 41.714844 Z M 77.375 34.976562 " clip-rule="nonzero"/></clipPath><clipPath id="6c260399d2"><path d="M 80.152344 35.867188 C 79.933594 41.257812 79.273438 41.699219 78.941406 41.585938 C 78.613281 41.476562 78.0625 39.828125 78.28125 39.605469 C 78.503906 39.386719 79.933594 39.71875 80.152344 40.046875 C 80.261719 40.378906 79.824219 41.367188 79.492188 41.476562 C 79.164062 41.585938 78.28125 41.257812 77.953125 40.707031 C 77.402344 39.828125 77.402344 36.636719 77.953125 35.753906 C 78.28125 35.316406 78.941406 34.984375 79.273438 34.984375 C 79.601562 34.984375 80.152344 35.867188 80.152344 35.867188 " clip-rule="nonzero"/></clipPath><clipPath id="87439e5cad"><path d="M 78.246094 36 L 81.050781 36 L 81.050781 41 L 78.246094 41 Z M 78.246094 36 " clip-rule="nonzero"/></clipPath><clipPath id="50031f3430"><path d="M 81.035156 37.1875 C 80.484375 40.597656 79.601562 41.039062 79.273438 40.816406 C 78.941406 40.597656 78.722656 39.167969 78.941406 38.945312 C 79.164062 38.726562 80.703125 39.277344 80.8125 39.605469 C 80.921875 39.9375 80.484375 40.707031 80.152344 40.816406 C 79.824219 40.925781 78.832031 40.488281 78.613281 40.046875 C 78.28125 39.386719 78.503906 37.296875 78.941406 36.636719 C 79.273438 36.195312 80.042969 35.976562 80.375 36.085938 C 80.703125 36.195312 81.035156 37.1875 81.035156 37.1875 " clip-rule="nonzero"/></clipPath><clipPath id="6a8267c34a"><path d="M 73 35.382812 L 75.886719 35.382812 L 75.886719 38.660156 L 73 38.660156 Z M 73 35.382812 " clip-rule="nonzero"/></clipPath><clipPath id="e8d57132b1"><path d="M 75.863281 37.296875 C 74.210938 38.617188 73.109375 37.847656 73.109375 37.515625 C 73.109375 37.1875 74.433594 36.414062 74.761719 36.527344 C 75.09375 36.636719 75.3125 38.066406 75.09375 38.285156 C 74.871094 38.507812 73.332031 38.285156 73.222656 37.957031 C 73 37.515625 74.320312 35.425781 74.761719 35.425781 C 75.203125 35.425781 75.863281 37.296875 75.863281 37.296875 " clip-rule="nonzero"/></clipPath><clipPath id="623d4c7a4d"><path d="M 52.382812 37.460938 L 59.253906 37.460938 L 59.253906 46.550781 L 52.382812 46.550781 Z M 52.382812 37.460938 " clip-rule="nonzero"/></clipPath><clipPath id="ccd99fda47"><path d="M 53.855469 46.320312 C 52.425781 38.066406 52.976562 37.738281 53.414062 37.625 C 53.855469 37.515625 54.40625 37.515625 54.957031 37.738281 C 56.167969 38.285156 59.136719 40.707031 59.246094 42.136719 C 59.246094 43.457031 57.046875 45.546875 56.167969 45.878906 C 55.726562 45.988281 55.066406 45.878906 54.847656 45.546875 C 54.625 45.21875 54.734375 44.117188 55.066406 43.898438 C 55.394531 43.679688 56.714844 44.226562 56.828125 44.558594 C 56.9375 44.886719 55.617188 45.988281 55.285156 45.878906 C 54.957031 45.769531 54.625 44.886719 54.734375 44.339844 C 54.847656 43.679688 56.605469 43.238281 56.714844 42.46875 C 56.828125 41.585938 54.734375 39.167969 54.40625 39.277344 C 54.074219 39.496094 56.496094 45.21875 55.835938 46.097656 C 55.507812 46.539062 53.855469 46.320312 53.855469 46.320312 " clip-rule="nonzero"/></clipPath><clipPath id="9185f2caf2"><path d="M 73.648438 32.390625 L 82.519531 32.390625 L 82.519531 42.9375 L 73.648438 42.9375 Z M 73.648438 32.390625 " clip-rule="nonzero"/></clipPath><clipPath id="b5ed7b3145"><path d="M 73.882812 34.214844 C 79.382812 32.453125 81.144531 32.785156 81.804688 33.664062 C 82.464844 34.546875 82.242188 36.304688 82.023438 37.625 C 81.804688 39.167969 81.144531 42.136719 80.261719 42.578125 C 79.714844 42.796875 78.394531 42.246094 78.28125 41.808594 C 78.171875 41.476562 78.832031 40.265625 79.273438 40.265625 C 79.714844 40.265625 80.8125 41.257812 80.8125 41.699219 C 80.8125 42.136719 79.714844 42.90625 79.273438 42.796875 C 78.832031 42.796875 78.394531 42.246094 78.28125 41.585938 C 77.953125 40.265625 80.484375 35.644531 79.601562 34.875 C 78.832031 34.105469 74.871094 36.855469 74.101562 36.304688 C 73.660156 35.976562 73.882812 34.214844 73.882812 34.214844 " clip-rule="nonzero"/></clipPath><clipPath id="a8bd3a4754"><path d="M 53.054688 39.46875 L 57.390625 39.46875 L 57.390625 44.253906 L 53.054688 44.253906 Z M 53.054688 39.46875 " clip-rule="nonzero"/></clipPath><clipPath id="aac2d9efe6"><path d="M 55.835938 40.925781 C 56.828125 43.238281 56.277344 44.117188 55.945312 44.117188 C 55.285156 44.117188 53.085938 40.488281 53.414062 40.15625 C 53.746094 39.828125 57.15625 41.039062 57.265625 41.699219 C 57.375 42.136719 55.945312 43.347656 55.726562 43.238281 C 55.507812 43.128906 55.507812 41.476562 55.835938 41.257812 C 56.167969 41.039062 57.375 41.585938 57.375 41.917969 C 57.375 42.246094 56.167969 43.347656 55.835938 43.238281 C 55.394531 43.128906 55.175781 39.9375 55.285156 39.9375 C 55.394531 39.9375 57.15625 42.796875 56.828125 43.457031 C 56.605469 43.898438 55.617188 44.226562 55.175781 44.007812 C 54.515625 43.679688 53.527344 40.925781 53.746094 40.265625 C 53.855469 39.828125 54.734375 39.496094 55.066406 39.605469 C 55.394531 39.71875 55.835938 40.925781 55.835938 40.925781 " clip-rule="nonzero"/></clipPath><clipPath id="36a79f7186"><path d="M 53.074219 38.605469 L 55.308594 38.605469 L 55.308594 40.855469 L 53.074219 40.855469 Z M 53.074219 38.605469 " clip-rule="nonzero"/></clipPath><clipPath id="e99c833c38"><path d="M 55.285156 39.386719 C 54.40625 40.816406 53.527344 40.597656 53.304688 40.265625 C 53.085938 39.9375 53.304688 39.058594 53.636719 38.835938 C 53.964844 38.617188 55.066406 38.945312 55.066406 38.945312 " clip-rule="nonzero"/></clipPath><clipPath id="02faa55205"><path d="M 80 34 L 82.261719 34 L 82.261719 36.34375 L 80 36.34375 Z M 80 34 " clip-rule="nonzero"/></clipPath><clipPath id="cc8de1aef3"><path d="M 80.042969 34.984375 C 81.472656 33.886719 82.242188 34.433594 82.242188 34.765625 C 82.242188 35.207031 81.253906 36.195312 80.921875 36.085938 C 80.59375 35.976562 79.933594 34.765625 80.152344 34.433594 C 80.375 34.105469 81.804688 33.996094 82.023438 34.324219 C 82.242188 34.65625 81.695312 36.085938 81.363281 36.195312 C 81.035156 36.304688 80.042969 35.207031 80.042969 35.207031 " clip-rule="nonzero"/></clipPath><clipPath id="1996c27d76"><path d="M 70 36.363281 L 79 36.363281 L 79 45.488281 L 70 45.488281 Z M 70 36.363281 " clip-rule="nonzero"/></clipPath><clipPath id="3a5308ee6c"><path d="M 73.550781 44.886719 C 70.03125 42.359375 69.921875 41.808594 70.25 41.148438 C 70.800781 39.9375 74.101562 37.515625 75.640625 36.964844 C 76.632812 36.636719 77.953125 36.414062 78.394531 36.964844 C 79.054688 37.847656 77.292969 42.90625 76.191406 43.789062 C 75.640625 44.226562 74.433594 44.226562 74.101562 44.007812 C 73.773438 43.789062 73.773438 43.347656 73.773438 42.90625 C 73.660156 42.027344 73.773438 39.828125 74.320312 39.277344 C 74.652344 38.945312 75.421875 38.835938 75.863281 39.058594 C 76.191406 39.277344 76.632812 39.71875 76.632812 40.265625 C 76.632812 41.148438 74.980469 43.128906 74.210938 43.566406 C 73.660156 43.898438 73 44.007812 72.671875 43.789062 C 72.339844 43.566406 72.011719 42.246094 72.230469 41.917969 C 72.449219 41.585938 74.210938 41.585938 74.433594 41.917969 C 74.652344 42.246094 74.320312 43.679688 73.992188 43.789062 C 73.550781 43.898438 72.011719 43.019531 72.011719 42.359375 C 71.902344 41.476562 74.652344 38.945312 75.53125 38.945312 C 75.972656 38.945312 76.523438 39.496094 76.632812 39.9375 C 76.851562 40.597656 76.632812 42.359375 76.191406 42.578125 C 75.863281 42.796875 74.761719 42.359375 74.542969 41.917969 C 74.210938 41.148438 76.300781 37.296875 76.523438 37.296875 C 76.632812 37.296875 76.191406 38.398438 76.414062 38.617188 C 76.632812 38.835938 77.84375 38.617188 77.84375 38.835938 C 77.953125 39.386719 72.449219 43.019531 71.679688 42.6875 C 71.351562 42.46875 71.351562 41.148438 71.570312 41.039062 C 72.011719 40.816406 74.980469 42.6875 75.3125 43.566406 C 75.53125 44.117188 75.3125 45 74.980469 45.21875 C 74.652344 45.4375 73.550781 44.886719 73.550781 44.886719 " clip-rule="nonzero"/></clipPath></defs><g fill="#ffffff" fill-opacity="1"><g transform="translate(12.785051, 72.460886)"><g><path d="M 8.671875 0.125 C 4.828125 0.125 2.90625 -0.296875 2.90625 -1.140625 L 2.90625 -42.15625 C 2.90625 -43.59375 3.5625 -44.3125 4.875 -44.3125 L 16.015625 -44.3125 C 22.253906 -44.3125 26.753906 -43.019531 29.515625 -40.4375 C 32.285156 -37.863281 33.671875 -34.132812 33.671875 -29.25 C 33.671875 -25.195312 32.363281 -21.484375 29.75 -18.109375 C 28.4375 -16.421875 26.515625 -15.066406 23.984375 -14.046875 C 21.453125 -13.035156 18.5 -12.53125 15.125 -12.53125 L 15.125 -1.203125 C 15.125 -0.691406 14.332031 -0.34375 12.75 -0.15625 C 11.164062 0.03125 9.804688 0.125 8.671875 0.125 Z M 15.125 -33.296875 L 15.125 -23.296875 L 15.953125 -23.296875 C 17.429688 -23.296875 18.675781 -23.757812 19.6875 -24.6875 C 20.695312 -25.613281 21.203125 -26.921875 21.203125 -28.609375 C 21.203125 -30.296875 20.851562 -31.5 20.15625 -32.21875 C 19.457031 -32.9375 18.222656 -33.296875 16.453125 -33.296875 Z M 15.125 -33.296875 "/></g></g></g><g fill="#f2668b" fill-opacity="1"><g transform="translate(48.874391, 72.460886)"><g><path d="M 5.59375 -3.734375 C 2.957031 -6.648438 1.640625 -10.679688 1.640625 -15.828125 C 1.640625 -20.972656 2.957031 -25 5.59375 -27.90625 C 8.238281 -30.820312 11.796875 -32.28125 16.265625 -32.28125 C 20.742188 -32.28125 24.289062 -30.820312 26.90625 -27.90625 C 29.519531 -25 30.828125 -20.972656 30.828125 -15.828125 C 30.828125 -10.679688 29.519531 -6.648438 26.90625 -3.734375 C 24.289062 -0.816406 20.742188 0.640625 16.265625 0.640625 C 11.796875 0.640625 8.238281 -0.816406 5.59375 -3.734375 Z M 16.296875 -21.703125 C 13.910156 -21.703125 12.71875 -19.757812 12.71875 -15.875 C 12.71875 -12 13.910156 -10.0625 16.296875 -10.0625 C 18.679688 -10.0625 19.875 -12 19.875 -15.875 C 19.875 -19.757812 18.679688 -21.703125 16.296875 -21.703125 Z M 16.296875 -21.703125 "/></g></g></g><g fill="#ffffff" fill-opacity="1"><g transform="translate(81.350118, 72.460886)"><g><path d="M 16.703125 -0.0625 C 16.703125 0.226562 14.785156 0.375 10.953125 0.375 C 7.109375 0.289062 5.1875 0.125 5.1875 -0.125 L 5.1875 -21.140625 L 3.484375 -21.140625 C 2.804688 -21.140625 2.265625 -21.550781 1.859375 -22.375 C 1.460938 -23.195312 1.265625 -24.21875 1.265625 -25.4375 C 1.265625 -30 2.613281 -32.28125 5.3125 -32.28125 C 7.21875 -32.28125 8.800781 -31.695312 10.0625 -30.53125 C 11.332031 -29.375 11.96875 -28.054688 11.96875 -26.578125 C 12.851562 -28.316406 14.039062 -29.703125 15.53125 -30.734375 C 17.03125 -31.765625 18.5625 -32.28125 20.125 -32.28125 C 22.570312 -32.28125 24.050781 -31.644531 24.5625 -30.375 C 24.6875 -30.039062 24.75 -29.546875 24.75 -28.890625 C 24.75 -28.234375 24.546875 -27.0625 24.140625 -25.375 C 23.742188 -23.6875 23.332031 -22.460938 22.90625 -21.703125 C 22.488281 -20.953125 22.238281 -20.578125 22.15625 -20.578125 C 22.070312 -20.578125 21.679688 -20.734375 20.984375 -21.046875 C 20.285156 -21.359375 19.660156 -21.515625 19.109375 -21.515625 C 17.503906 -21.515625 16.703125 -20.25 16.703125 -17.71875 Z M 16.703125 -0.0625 "/></g></g></g><g fill="#ffffff" fill-opacity="1"><g transform="translate(106.417894, 72.460886)"><g><path d="M 2.84375 -43.796875 C 2.84375 -44.472656 4.765625 -44.8125 8.609375 -44.8125 C 12.191406 -44.6875 13.984375 -44.410156 13.984375 -43.984375 L 13.984375 -19.6875 L 20.25 -31.265625 C 20.550781 -31.898438 22.347656 -32.21875 25.640625 -32.21875 C 28.929688 -32.21875 31.039062 -32.003906 31.96875 -31.578125 L 23.734375 -18.171875 L 33.234375 -0.375 C 33.316406 -0.207031 32.523438 -0.0703125 30.859375 0.03125 C 29.191406 0.132812 27.8125 0.1875 26.71875 0.1875 C 22.664062 0.1875 20.488281 0 20.1875 -0.375 L 13.921875 -14.4375 L 13.921875 -0.4375 C 13.921875 0.101562 12.070312 0.375 8.375 0.375 C 4.6875 0.375 2.84375 0.125 2.84375 -0.375 Z M 2.84375 -43.796875 "/></g></g></g><g fill="#ffffff" fill-opacity="1"><g transform="translate(140.031498, 72.460886)"><g><path d="M 8.671875 0.125 C 4.828125 0.125 2.90625 -0.296875 2.90625 -1.140625 L 2.90625 -42.15625 C 2.90625 -43.59375 3.5625 -44.3125 4.875 -44.3125 L 16.015625 -44.3125 C 22.253906 -44.3125 26.753906 -43.019531 29.515625 -40.4375 C 32.285156 -37.863281 33.671875 -34.132812 33.671875 -29.25 C 33.671875 -25.195312 32.363281 -21.484375 29.75 -18.109375 C 28.4375 -16.421875 26.515625 -15.066406 23.984375 -14.046875 C 21.453125 -13.035156 18.5 -12.53125 15.125 -12.53125 L 15.125 -1.203125 C 15.125 -0.691406 14.332031 -0.34375 12.75 -0.15625 C 11.164062 0.03125 9.804688 0.125 8.671875 0.125 Z M 15.125 -33.296875 L 15.125 -23.296875 L 15.953125 -23.296875 C 17.429688 -23.296875 18.675781 -23.757812 19.6875 -24.6875 C 20.695312 -25.613281 21.203125 -26.921875 21.203125 -28.609375 C 21.203125 -30.296875 20.851562 -31.5 20.15625 -32.21875 C 19.457031 -32.9375 18.222656 -33.296875 16.453125 -33.296875 Z M 15.125 -33.296875 "/></g></g></g><g fill="#ffffff" fill-opacity="1"><g transform="translate(176.113905, 72.460886)"><g><path d="M 5.59375 -3.734375 C 2.957031 -6.648438 1.640625 -10.679688 1.640625 -15.828125 C 1.640625 -20.972656 2.957031 -25 5.59375 -27.90625 C 8.238281 -30.820312 11.796875 -32.28125 16.265625 -32.28125 C 20.742188 -32.28125 24.289062 -30.820312 26.90625 -27.90625 C 29.519531 -25 30.828125 -20.972656 30.828125 -15.828125 C 30.828125 -10.679688 29.519531 -6.648438 26.90625 -3.734375 C 24.289062 -0.816406 20.742188 0.640625 16.265625 0.640625 C 11.796875 0.640625 8.238281 -0.816406 5.59375 -3.734375 Z M 16.296875 -21.703125 C 13.910156 -21.703125 12.71875 -19.757812 12.71875 -15.875 C 12.71875 -12 13.910156 -10.0625 16.296875 -10.0625 C 18.679688 -10.0625 19.875 -12 19.875 -15.875 C 19.875 -19.757812 18.679688 -21.703125 16.296875 -21.703125 Z M 16.296875 -21.703125 "/></g></g></g><g fill="#ffffff" fill-opacity="1"><g transform="translate(208.588069, 72.460886)"><g><path d="M 13.234375 -15.703125 C 13.234375 -11.566406 14.789062 -9.5 17.90625 -9.5 C 19.9375 -9.5 21.628906 -9.898438 22.984375 -10.703125 C 23.609375 -10.703125 24.117188 -9.613281 24.515625 -7.4375 C 24.921875 -5.257812 25.125 -3.78125 25.125 -3 C 25.125 -2.21875 25.019531 -1.703125 24.8125 -1.453125 C 22.570312 -0.0546875 19.507812 0.640625 15.625 0.640625 C 11.75 0.640625 8.445312 -0.800781 5.71875 -3.6875 C 3 -6.582031 1.640625 -10.53125 1.640625 -15.53125 C 1.640625 -20.539062 2.976562 -24.582031 5.65625 -27.65625 C 8.34375 -30.738281 11.910156 -32.28125 16.359375 -32.28125 C 20.816406 -32.28125 23.910156 -31.203125 25.640625 -29.046875 C 26.015625 -28.585938 26.203125 -27.90625 26.203125 -27 C 26.203125 -26.09375 26.035156 -24.984375 25.703125 -23.671875 C 24.941406 -20.972656 23.945312 -19.410156 22.71875 -18.984375 C 22.550781 -18.941406 22.304688 -18.921875 21.984375 -18.921875 C 21.671875 -18.921875 21.285156 -19.175781 20.828125 -19.6875 C 19.179688 -21.332031 17.859375 -22.15625 16.859375 -22.15625 C 15.867188 -22.15625 15.015625 -21.644531 14.296875 -20.625 C 13.585938 -19.613281 13.234375 -17.972656 13.234375 -15.703125 Z M 13.234375 -15.703125 "/></g></g></g><g fill="#ffffff" fill-opacity="1"><g transform="translate(235.428309, 72.460886)"><g><path d="M 2.84375 -43.796875 C 2.84375 -44.472656 4.765625 -44.8125 8.609375 -44.8125 C 12.191406 -44.6875 13.984375 -44.410156 13.984375 -43.984375 L 13.984375 -19.6875 L 20.25 -31.265625 C 20.550781 -31.898438 22.347656 -32.21875 25.640625 -32.21875 C 28.929688 -32.21875 31.039062 -32.003906 31.96875 -31.578125 L 23.734375 -18.171875 L 33.234375 -0.375 C 33.316406 -0.207031 32.523438 -0.0703125 30.859375 0.03125 C 29.191406 0.132812 27.8125 0.1875 26.71875 0.1875 C 22.664062 0.1875 20.488281 0 20.1875 -0.375 L 13.921875 -14.4375 L 13.921875 -0.4375 C 13.921875 0.101562 12.070312 0.375 8.375 0.375 C 4.6875 0.375 2.84375 0.125 2.84375 -0.375 Z M 2.84375 -43.796875 "/></g></g></g><g fill="#ffffff" fill-opacity="1"><g transform="translate(269.041913, 72.460886)"><g><path d="M 26.78125 -1.703125 C 24.113281 -0.140625 20.691406 0.640625 16.515625 0.640625 C 12.335938 0.640625 8.8125 -0.78125 5.9375 -3.625 C 3.070312 -6.476562 1.640625 -10.425781 1.640625 -15.46875 C 1.640625 -20.519531 3.019531 -24.582031 5.78125 -27.65625 C 8.550781 -30.738281 12.046875 -32.28125 16.265625 -32.28125 C 20.484375 -32.28125 23.742188 -31.203125 26.046875 -29.046875 C 28.347656 -26.898438 29.5 -24.285156 29.5 -21.203125 C 29.5 -14.367188 25.570312 -10.953125 17.71875 -10.953125 L 13.359375 -10.953125 C 13.359375 -9.679688 13.703125 -8.800781 14.390625 -8.3125 C 15.085938 -7.832031 16.113281 -7.59375 17.46875 -7.59375 C 20.425781 -7.59375 23.234375 -8.269531 25.890625 -9.625 C 25.929688 -9.664062 26.117188 -9.367188 26.453125 -8.734375 C 27.472656 -6.921875 27.984375 -5.390625 27.984375 -4.140625 C 27.984375 -2.898438 27.582031 -2.085938 26.78125 -1.703125 Z M 18.859375 -20 C 18.859375 -21.769531 17.992188 -22.65625 16.265625 -22.65625 C 15.460938 -22.65625 14.773438 -22.410156 14.203125 -21.921875 C 13.640625 -21.441406 13.359375 -20.738281 13.359375 -19.8125 L 13.359375 -17.84375 L 16.78125 -17.84375 C 18.164062 -17.84375 18.859375 -18.5625 18.859375 -20 Z M 18.859375 -20 "/></g></g></g><g fill="#ffffff" fill-opacity="1"><g transform="translate(299.806892, 72.460886)"><g><path d="M 17.40625 -0.375 C 17.40625 0.125 15.632812 0.375 12.09375 0.375 C 7.875 0.207031 5.765625 -0.0625 5.765625 -0.4375 L 5.765625 -22.84375 L 2.53125 -22.84375 C 1.6875 -22.84375 1.265625 -24.300781 1.265625 -27.21875 C 1.265625 -27.976562 1.335938 -28.90625 1.484375 -30 C 1.628906 -31.09375 1.9375 -31.640625 2.40625 -31.640625 L 5.765625 -31.640625 L 5.765625 -37.21875 C 5.765625 -38.0625 7.546875 -38.484375 11.109375 -38.484375 C 14.671875 -38.484375 16.453125 -38.144531 16.453125 -37.46875 L 16.453125 -33.421875 L 16.515625 -31.640625 L 21.90625 -31.640625 C 22.625 -31.640625 22.984375 -30.160156 22.984375 -27.203125 C 22.984375 -24.253906 22.625 -22.78125 21.90625 -22.78125 L 17.40625 -22.78125 Z M 17.40625 -0.375 "/></g></g></g><g fill="#00bf63" fill-opacity="1"><g transform="translate(324.233179, 71.862531)"><g><path d="M 15.25 -38.609375 L 15.25 -35.734375 C 17.726562 -35.628906 19.875 -35.285156 21.6875 -34.703125 C 23.5 -34.117188 24.40625 -33.238281 24.40625 -32.0625 C 24.40625 -31.019531 24.0625 -29.640625 23.375 -27.921875 C 22.6875 -26.210938 22.207031 -25.3125 21.9375 -25.21875 C 19.125 -26.382812 16.894531 -27.035156 15.25 -27.171875 L 15.25 -21.484375 C 22.289062 -21.222656 25.8125 -17.835938 25.8125 -11.328125 C 25.8125 -8.273438 24.9375 -5.65625 23.1875 -3.46875 C 21.445312 -1.289062 18.800781 -0.015625 15.25 0.359375 L 15.25 3.828125 C 15.25 4.429688 15.070312 4.832031 14.71875 5.03125 C 14.363281 5.226562 14.070312 5.328125 13.84375 5.328125 L 13.140625 5.140625 C 12.671875 4.867188 12.4375 4.429688 12.4375 3.828125 L 12.4375 0.5 C 9.613281 0.4375 7.117188 -0.0625 4.953125 -1 C 2.796875 -1.945312 1.71875 -3.140625 1.71875 -4.578125 C 1.71875 -6.453125 2.285156 -8.347656 3.421875 -10.265625 C 3.523438 -10.460938 3.660156 -10.679688 3.828125 -10.921875 C 6.546875 -9.273438 9.414062 -8.351562 12.4375 -8.15625 L 12.4375 -13.6875 C 5.289062 -14.125 1.71875 -17.78125 1.71875 -24.65625 C 1.71875 -27.675781 2.671875 -30.160156 4.578125 -32.109375 C 6.492188 -34.054688 9.113281 -35.226562 12.4375 -35.625 L 12.4375 -38.609375 C 12.4375 -39.203125 12.609375 -39.597656 12.953125 -39.796875 C 13.304688 -40.003906 13.601562 -40.109375 13.84375 -40.109375 L 14.546875 -39.90625 C 15.015625 -39.632812 15.25 -39.203125 15.25 -38.609375 Z M 18.828125 -11.578125 C 18.828125 -12.347656 18.566406 -12.875 18.046875 -13.15625 C 17.523438 -13.445312 16.59375 -13.625 15.25 -13.6875 L 15.25 -8.25 C 17.632812 -8.65625 18.828125 -9.765625 18.828125 -11.578125 Z M 9.359375 -24.109375 C 9.359375 -22.703125 10.382812 -21.878906 12.4375 -21.640625 L 12.4375 -27.125 C 10.382812 -26.789062 9.359375 -25.785156 9.359375 -24.109375 Z M 9.359375 -24.109375 "/></g></g></g><g clip-path="url(#c0fcc63766)"><g clip-path="url(#1a4d1fd08a)"><g clip-path="url(#6edb55fe78)"><path fill="#f2668b" d="M 65.929688 60.835938 L 90.890625 72.132812 L 83.164062 89.199219 L 58.203125 77.898438 Z M 65.929688 60.835938 " fill-opacity="1" fill-rule="nonzero"/></g></g></g><g clip-path="url(#f2314f3087)"><g clip-path="url(#acb53b7d6e)"><path fill="#f2668b" d="M 43.84375 29.265625 L 65.847656 29.265625 L 65.847656 51.710938 L 43.84375 51.710938 Z M 43.84375 29.265625 " fill-opacity="1" fill-rule="nonzero"/></g></g><g clip-path="url(#1b5894632c)"><g clip-path="url(#2545bf2836)"><path fill="#f2668b" d="M 63.429688 29.375 L 86.425781 29.375 L 86.425781 53.25 L 63.429688 53.25 Z M 63.429688 29.375 " fill-opacity="1" fill-rule="nonzero"/></g></g><g clip-path="url(#bc004ea9af)"><g clip-path="url(#6b6ab261ee)"><path fill="#f2668b" d="M 47.582031 31.792969 L 62.328125 31.792969 L 62.328125 46.207031 L 47.582031 46.207031 Z M 47.582031 31.792969 " fill-opacity="1" fill-rule="nonzero"/></g></g><g clip-path="url(#15a080721c)"><g clip-path="url(#1a43b18d9e)"><path fill="#f2668b" d="M 48.242188 33.773438 L 62.988281 33.773438 L 62.988281 48.078125 L 48.242188 48.078125 Z M 48.242188 33.773438 " fill-opacity="1" fill-rule="nonzero"/></g></g><g clip-path="url(#8fe5dc289d)"><g clip-path="url(#3d69b17859)"><path fill="#f2668b" d="M 47.914062 33.445312 L 63.429688 33.445312 L 63.429688 52.039062 L 47.914062 52.039062 Z M 47.914062 33.445312 " fill-opacity="1" fill-rule="nonzero"/></g></g><g clip-path="url(#9377970176)"><g clip-path="url(#b31c023298)"><path fill="#f2668b" d="M 49.34375 32.894531 L 64.75 32.894531 L 64.75 48.410156 L 49.34375 48.410156 Z M 49.34375 32.894531 " fill-opacity="1" fill-rule="nonzero"/></g></g><g clip-path="url(#2323c312b3)"><g clip-path="url(#76450c5d6f)"><path fill="#f2668b" d="M 63.539062 31.683594 L 83.234375 31.683594 L 83.234375 50.390625 L 63.539062 50.390625 Z M 63.539062 31.683594 " fill-opacity="1" fill-rule="nonzero"/></g></g><g clip-path="url(#9626373c17)"><g clip-path="url(#cdc879b77b)"><path fill="#f2668b" d="M 67.828125 34.984375 L 82.574219 34.984375 L 82.574219 49.398438 L 67.828125 49.398438 Z M 67.828125 34.984375 " fill-opacity="1" fill-rule="nonzero"/></g></g><g clip-path="url(#98ef51a2e4)"><g clip-path="url(#0b050a52ae)"><path fill="#f2668b" d="M 67.390625 30.585938 L 84.773438 30.585938 L 84.773438 48.960938 L 67.390625 48.960938 Z M 67.390625 30.585938 " fill-opacity="1" fill-rule="nonzero"/></g></g><g clip-path="url(#a19e30f892)"><g clip-path="url(#264d7f0c34)"><path fill="#f2668b" d="M 44.832031 30.144531 L 58.257812 30.144531 L 58.257812 53.582031 L 44.832031 53.582031 Z M 44.832031 30.144531 " fill-opacity="1" fill-rule="nonzero"/></g></g><g clip-path="url(#d63bab4fc1)"><g clip-path="url(#3c761d1a59)"><path fill="#f2668b" d="M 46.8125 30.914062 L 60.128906 30.914062 L 60.128906 42.246094 L 46.8125 42.246094 Z M 46.8125 30.914062 " fill-opacity="1" fill-rule="nonzero"/></g></g><g clip-path="url(#2f010fe194)"><g clip-path="url(#17b41a5a70)"><path fill="#f2668b" d="M 48.132812 30.804688 L 59.027344 30.804688 L 59.027344 41.367188 L 48.132812 41.367188 Z M 48.132812 30.804688 " fill-opacity="1" fill-rule="nonzero"/></g></g><g clip-path="url(#8c463fde82)"><g clip-path="url(#75ea38a8d5)"><path fill="#f2668b" d="M 48.574219 31.792969 L 59.355469 31.792969 L 59.355469 42.46875 L 48.574219 42.46875 Z M 48.574219 31.792969 " fill-opacity="1" fill-rule="nonzero"/></g></g><g clip-path="url(#470dc81d4d)"><g clip-path="url(#93f350eaa3)"><path fill="#f2668b" d="M 48.464844 31.246094 L 59.46875 31.246094 L 59.46875 42.578125 L 48.464844 42.578125 Z M 48.464844 31.246094 " fill-opacity="1" fill-rule="nonzero"/></g></g><g clip-path="url(#2235e6226b)"><g clip-path="url(#7f43933d83)"><path fill="#f2668b" d="M 48.355469 30.144531 L 59.46875 30.144531 L 59.46875 41.585938 L 48.355469 41.585938 Z M 48.355469 30.144531 " fill-opacity="1" fill-rule="nonzero"/></g></g><g clip-path="url(#cef27267c7)"><g clip-path="url(#23ed01567d)"><path fill="#f2668b" d="M 73.550781 30.804688 L 84.664062 30.804688 L 84.664062 41.808594 L 73.550781 41.808594 Z M 73.550781 30.804688 " fill-opacity="1" fill-rule="nonzero"/></g></g><g clip-path="url(#7e4eb0bd1f)"><g clip-path="url(#1cc135314d)"><path fill="#f2668b" d="M 72.121094 30.804688 L 84.882812 30.804688 L 84.882812 43.457031 L 72.121094 43.457031 Z M 72.121094 30.804688 " fill-opacity="1" fill-rule="nonzero"/></g></g><g clip-path="url(#413e128443)"><g clip-path="url(#aa971033dd)"><path fill="#f2668b" d="M 64.308594 32.125 L 83.453125 32.125 L 83.453125 48.960938 L 64.308594 48.960938 Z M 64.308594 32.125 " fill-opacity="1" fill-rule="nonzero"/></g></g><g clip-path="url(#296c874342)"><g clip-path="url(#6783b753c5)"><path fill="#f2668b" d="M 47.695312 37.40625 L 59.578125 37.40625 L 59.578125 50.5 L 47.695312 50.5 Z M 47.695312 37.40625 " fill-opacity="1" fill-rule="nonzero"/></g></g><g clip-path="url(#efae8be62a)"><g clip-path="url(#6c260399d2)"><path fill="#f2668b" d="M 73.550781 30.585938 L 84.554688 30.585938 L 84.554688 45.988281 L 73.550781 45.988281 Z M 73.550781 30.585938 " fill-opacity="1" fill-rule="nonzero"/></g></g><g clip-path="url(#87439e5cad)"><g clip-path="url(#50031f3430)"><path fill="#f2668b" d="M 74.210938 31.683594 L 85.433594 31.683594 L 85.433594 45.21875 L 74.210938 45.21875 Z M 74.210938 31.683594 " fill-opacity="1" fill-rule="nonzero"/></g></g><g clip-path="url(#6a8267c34a)"><g clip-path="url(#e8d57132b1)"><path fill="#f2668b" d="M 68.710938 31.023438 L 80.261719 31.023438 L 80.261719 43.019531 L 68.710938 43.019531 Z M 68.710938 31.023438 " fill-opacity="1" fill-rule="nonzero"/></g></g><g clip-path="url(#623d4c7a4d)"><g clip-path="url(#ccd99fda47)"><path fill="#eb95ac" d="M 47.804688 33.226562 L 63.648438 33.226562 L 63.648438 50.71875 L 47.804688 50.71875 Z M 47.804688 33.226562 " fill-opacity="1" fill-rule="nonzero"/></g></g><g clip-path="url(#9185f2caf2)"><g clip-path="url(#b5ed7b3145)"><path fill="#f2668b" d="M 69.480469 28.054688 L 86.425781 28.054688 L 86.425781 47.199219 L 69.480469 47.199219 Z M 69.480469 28.054688 " fill-opacity="1" fill-rule="nonzero"/></g></g><g clip-path="url(#a8bd3a4754)"><g clip-path="url(#aac2d9efe6)"><path fill="#eb95ac" d="M 49.015625 35.207031 L 61.777344 35.207031 L 61.777344 48.519531 L 49.015625 48.519531 Z M 49.015625 35.207031 " fill-opacity="1" fill-rule="nonzero"/></g></g><g clip-path="url(#36a79f7186)"><g clip-path="url(#e99c833c38)"><path fill="#eb95ac" d="M 48.902344 34.433594 L 59.6875 34.433594 L 59.6875 45.109375 L 48.902344 45.109375 Z M 48.902344 34.433594 " fill-opacity="1" fill-rule="nonzero"/></g></g><g clip-path="url(#02faa55205)"><g clip-path="url(#cc8de1aef3)"><path fill="#f2668b" d="M 75.640625 29.484375 L 86.644531 29.484375 L 86.644531 40.597656 L 75.640625 40.597656 Z M 75.640625 29.484375 " fill-opacity="1" fill-rule="nonzero"/></g></g><g clip-path="url(#1996c27d76)"><g clip-path="url(#3a5308ee6c)"><path fill="#eb95ac" d="M 65.847656 32.566406 L 82.792969 32.566406 L 82.792969 49.621094 L 65.847656 49.621094 Z M 65.847656 32.566406 " fill-opacity="1" fill-rule="nonzero"/></g></g></svg>