<svg xmlns="http://www.w3.org/2000/svg" xmlns:xlink="http://www.w3.org/1999/xlink" width="483" zoomAndPan="magnify" viewBox="0 0 362.25 101.249998" height="135" preserveAspectRatio="xMidYMid meet" version="1.0"><defs><g/><clipPath id="462e39434e"><path d="M 65 68 L 86 68 L 86 83 L 65 83 Z M 65 68 " clip-rule="nonzero"/></clipPath><clipPath id="03c7ef5ca2"><path d="M 68.1875 64.507812 L 87.390625 73.203125 L 82.199219 84.671875 L 62.996094 75.980469 Z M 68.1875 64.507812 " clip-rule="nonzero"/></clipPath><clipPath id="6891542aca"><path d="M 68.320312 69.414062 C 69.769531 74.574219 70.214844 74.777344 70.78125 75.121094 C 71.496094 75.535156 72.523438 76.453125 73.472656 76.339844 C 74.605469 76.222656 77.035156 74.441406 76.949219 74.039062 C 76.867188 73.824219 75.933594 73.492188 75.574219 73.6875 C 75.074219 74 74.621094 75.597656 74.871094 76.433594 C 75.132812 77.453125 76.773438 79.007812 77.8125 79.296875 C 78.703125 79.519531 79.746094 79 80.5 78.53125 C 81.253906 78.0625 81.960938 77.300781 82.441406 76.4375 C 83.058594 75.273438 82.949219 72.523438 83.597656 72.09375 C 83.957031 71.894531 84.621094 72.015625 84.925781 72.335938 C 85.234375 72.65625 85.527344 73.597656 85.324219 74.046875 C 85.121094 74.496094 84.183594 74.972656 83.777344 74.878906 C 83.367188 74.785156 82.683594 74.113281 82.625 73.636719 C 82.570312 73.160156 83.128906 72.332031 83.488281 72.132812 C 83.847656 71.9375 84.472656 71.949219 84.777344 72.269531 C 85.390625 72.90625 85.824219 75.535156 85.328125 77.023438 C 84.84375 78.695312 83.011719 80.75 81.496094 81.503906 C 80.199219 82.179688 78.40625 82.359375 77.109375 82.042969 C 75.8125 81.726562 74.34375 80.789062 73.566406 79.71875 C 72.75 78.535156 72.1875 76.390625 72.464844 74.984375 C 72.742188 73.578125 74.132812 71.503906 75.292969 71.128906 C 76.238281 70.835938 77.996094 71.722656 78.675781 72.210938 C 79.09375 72.488281 79.289062 72.847656 79.417969 73.355469 C 79.523438 74.125 79.289062 75.640625 78.699219 76.542969 C 78.074219 77.523438 76.558594 78.28125 75.472656 78.6875 C 74.53125 78.980469 73.546875 79.167969 72.503906 78.875 C 70.984375 78.457031 68.574219 77.007812 67.453125 75.507812 C 66.328125 74.007812 65.585938 70.878906 65.910156 69.761719 C 66.105469 69.132812 66.707031 68.59375 67.148438 68.613281 C 67.515625 68.597656 68.320312 69.414062 68.320312 69.414062 " clip-rule="nonzero"/></clipPath><clipPath id="1efbc3d460"><path d="M 49 33.015625 L 62.441406 33.015625 L 62.441406 47 L 49 47 Z M 49 33.015625 " clip-rule="nonzero"/></clipPath><clipPath id="0957bb0c59"><path d="M 52.667969 46.1875 C 48.949219 34.585938 49.167969 34.039062 49.714844 33.710938 C 50.699219 33.054688 53.765625 33.054688 55.40625 33.382812 C 56.828125 33.710938 58.03125 34.367188 59.125 35.460938 C 60.441406 36.773438 62.410156 39.949219 62.082031 40.933594 C 61.863281 41.480469 60.222656 41.917969 60.003906 41.699219 C 59.785156 41.480469 60.003906 40.277344 60.332031 40.058594 C 60.660156 39.839844 61.753906 40.167969 61.863281 40.496094 C 61.972656 40.824219 60.988281 42.136719 60.441406 42.027344 C 59.566406 41.917969 58.6875 37.980469 57.59375 36.882812 C 56.828125 36.117188 56.171875 35.679688 55.296875 35.460938 C 54.203125 35.242188 51.683594 35.023438 51.136719 35.898438 C 50.261719 37.320312 54.96875 43.78125 54.75 45.53125 C 54.640625 46.1875 54.203125 46.84375 53.875 46.953125 C 53.542969 47.0625 52.667969 46.1875 52.667969 46.1875 " clip-rule="nonzero"/></clipPath><clipPath id="e78a14982a"><path d="M 68.25 33.011719 L 82.996094 33.011719 L 82.996094 48.503906 L 68.25 48.503906 Z M 68.25 33.011719 " clip-rule="nonzero"/></clipPath><clipPath id="61c23ad005"><path d="M 68.429688 41.042969 C 74.339844 33.929688 74.886719 33.710938 75.871094 33.492188 C 77.1875 33.164062 79.484375 33.054688 80.6875 33.492188 C 81.5625 33.820312 82.21875 34.367188 82.550781 35.242188 C 82.988281 36.554688 82.769531 39.292969 81.78125 41.261719 C 80.46875 43.78125 75.324219 48.484375 73.792969 48.484375 C 73.136719 48.484375 72.371094 47.5 72.480469 47.171875 C 72.589844 46.84375 74.121094 46.40625 74.339844 46.625 C 74.558594 46.84375 73.902344 48.484375 73.574219 48.484375 C 73.246094 48.484375 72.371094 47.609375 72.480469 46.953125 C 72.699219 45.421875 78.609375 42.464844 79.921875 40.277344 C 80.796875 38.855469 81.453125 36.992188 80.90625 36.226562 C 80.25 35.351562 76.636719 35.132812 74.886719 36.007812 C 72.917969 36.992188 71.167969 41.917969 69.960938 42.574219 C 69.414062 42.902344 68.867188 42.902344 68.648438 42.683594 C 68.320312 42.464844 68.429688 41.042969 68.429688 41.042969 " clip-rule="nonzero"/></clipPath><clipPath id="222ae1e1c3"><path d="M 52.074219 35.21875 L 58.601562 35.21875 L 58.601562 41 L 52.074219 41 Z M 52.074219 35.21875 " clip-rule="nonzero"/></clipPath><clipPath id="f89de3eb4e"><path d="M 58.578125 37.542969 C 55.84375 41.917969 53.214844 41.152344 52.667969 40.167969 C 52.121094 39.183594 52.558594 36.554688 53.433594 35.898438 C 54.3125 35.242188 57.8125 36.117188 57.8125 36.117188 " clip-rule="nonzero"/></clipPath><clipPath id="4b00e61f62"><path d="M 53 37.160156 L 59.261719 37.160156 L 59.261719 43 L 53 43 Z M 53 37.160156 " clip-rule="nonzero"/></clipPath><clipPath id="51c7668c13"><path d="M 59.234375 39.402344 C 56.5 43.78125 53.875 43.011719 53.324219 42.136719 C 52.777344 41.261719 53.214844 38.527344 54.09375 37.871094 C 54.96875 37.210938 58.46875 38.089844 58.46875 38.089844 " clip-rule="nonzero"/></clipPath><clipPath id="47ac1f3aba"><path d="M 52.660156 37.210938 L 59.710938 37.210938 L 59.710938 47.613281 L 52.660156 47.613281 Z M 52.660156 37.210938 " clip-rule="nonzero"/></clipPath><clipPath id="2838c126da"><path d="M 59.457031 40.496094 C 58.578125 46.734375 57.921875 47.171875 57.265625 47.28125 C 56.390625 47.5 54.96875 47.171875 54.203125 46.625 C 53.542969 46.078125 52.886719 44.65625 52.996094 43.78125 C 53.105469 42.902344 53.984375 41.589844 54.75 41.152344 C 55.515625 40.714844 57.046875 40.605469 57.8125 41.042969 C 58.6875 41.480469 59.675781 42.683594 59.675781 43.671875 C 59.675781 44.765625 58.578125 46.734375 57.59375 47.171875 C 56.71875 47.609375 55.296875 47.390625 54.53125 46.84375 C 53.765625 46.296875 53.214844 45.203125 52.996094 44.109375 C 52.667969 42.683594 52.667969 39.839844 53.542969 38.746094 C 54.203125 37.871094 56.0625 37.210938 57.046875 37.542969 C 58.03125 37.871094 59.457031 40.496094 59.457031 40.496094 " clip-rule="nonzero"/></clipPath><clipPath id="6b2adf9c4d"><path d="M 54.054688 36.714844 L 61.234375 36.714844 L 61.234375 43.828125 L 54.054688 43.828125 Z M 54.054688 36.714844 " clip-rule="nonzero"/></clipPath><clipPath id="0a3a8e3aea"><path d="M 59.675781 37.652344 C 60.878906 42.136719 60.332031 42.792969 59.675781 43.121094 C 58.90625 43.5625 57.484375 43.78125 56.609375 43.453125 C 55.734375 43.121094 54.859375 42.027344 54.640625 41.152344 C 54.421875 40.277344 54.75 38.855469 55.40625 38.199219 C 56.0625 37.542969 57.484375 37.101562 58.359375 37.210938 C 59.234375 37.320312 60.332031 38.199219 60.769531 38.964844 C 61.207031 39.839844 61.097656 41.371094 60.660156 42.136719 C 60.222656 42.902344 58.90625 43.671875 58.03125 43.671875 C 57.046875 43.671875 55.40625 42.902344 54.859375 42.136719 C 54.3125 41.371094 54.09375 39.949219 54.421875 39.074219 C 54.75 38.199219 55.84375 37.210938 56.71875 36.992188 C 57.484375 36.773438 59.015625 37.320312 59.015625 37.320312 " clip-rule="nonzero"/></clipPath><clipPath id="af2c661fed"><path d="M 68.140625 35.628906 L 79.390625 35.628906 L 79.390625 45.65625 L 68.140625 45.65625 Z M 68.140625 35.628906 " clip-rule="nonzero"/></clipPath><clipPath id="1804c71e3d"><path d="M 69.851562 39.621094 C 75.871094 35.789062 76.527344 35.679688 77.1875 36.007812 C 78.0625 36.445312 79.375 38.308594 79.375 39.402344 C 79.375 40.386719 78.5 41.699219 77.734375 42.136719 C 76.96875 42.574219 75.433594 42.683594 74.558594 42.246094 C 73.683594 41.808594 72.917969 40.605469 72.699219 39.730469 C 72.480469 38.964844 72.589844 38.199219 73.027344 37.542969 C 73.464844 36.773438 74.777344 35.898438 75.761719 35.789062 C 76.636719 35.679688 78.0625 36.335938 78.609375 36.992188 C 79.15625 37.542969 79.375 38.308594 79.375 39.074219 C 79.375 39.949219 78.828125 41.042969 78.0625 41.917969 C 76.859375 43.230469 74.011719 45.640625 72.261719 45.640625 C 70.835938 45.640625 68.867188 44.328125 68.539062 43.230469 C 68.210938 42.246094 69.851562 39.621094 69.851562 39.621094 " clip-rule="nonzero"/></clipPath><clipPath id="2744d394a0"><path d="M 72.210938 38.390625 L 78.742188 38.390625 L 78.742188 45 L 72.210938 45 Z M 72.210938 38.390625 " clip-rule="nonzero"/></clipPath><clipPath id="b344d8393c"><path d="M 78.71875 40.605469 C 75.980469 45.09375 73.355469 44.328125 72.808594 43.34375 C 72.261719 42.355469 72.699219 39.730469 73.574219 39.074219 C 74.449219 38.417969 77.953125 39.292969 77.953125 39.292969 " clip-rule="nonzero"/></clipPath><clipPath id="d9a2ac73c1"><path d="M 72 34.457031 L 81 34.457031 L 81 44.238281 L 72 44.238281 Z M 72 34.457031 " clip-rule="nonzero"/></clipPath><clipPath id="79eeb32188"><path d="M 73.027344 38.527344 C 77.1875 34.585938 78.5 34.585938 79.265625 35.132812 C 80.140625 35.679688 81.015625 37.871094 80.796875 38.855469 C 80.578125 39.949219 78.71875 41.261719 77.625 41.371094 C 76.75 41.480469 75.324219 40.714844 74.886719 39.949219 C 74.339844 39.074219 74.339844 36.773438 74.996094 35.898438 C 75.542969 35.132812 76.96875 34.476562 77.953125 34.695312 C 79.046875 34.914062 80.6875 36.226562 80.90625 37.429688 C 81.125 38.964844 78.828125 42.136719 77.734375 43.230469 C 77.078125 43.890625 76.417969 44.21875 75.652344 44.21875 C 74.667969 44.21875 72.808594 43.230469 72.371094 42.246094 C 71.933594 41.261719 73.027344 38.527344 73.027344 38.527344 " clip-rule="nonzero"/></clipPath><clipPath id="2e110b6361"><path d="M 49.78125 34.070312 L 54.890625 34.070312 L 54.890625 49 L 49.78125 49 Z M 49.78125 34.070312 " clip-rule="nonzero"/></clipPath><clipPath id="9f3fb39904"><path d="M 52.667969 35.570312 C 52.449219 42.464844 54.859375 46.515625 54.53125 47.828125 C 54.421875 48.375 53.875 48.8125 53.433594 48.8125 C 52.996094 48.8125 52.121094 48.265625 52.121094 47.9375 C 52.121094 47.5 53.324219 46.296875 53.765625 46.40625 C 54.09375 46.40625 54.53125 47.28125 54.53125 47.71875 C 54.53125 48.15625 53.875 48.703125 53.542969 48.8125 C 53.105469 48.921875 52.667969 48.59375 52.230469 48.046875 C 51.246094 46.734375 50.042969 41.808594 49.933594 39.402344 C 49.824219 37.652344 50.152344 35.460938 50.699219 34.695312 C 51.027344 34.367188 51.574219 34.148438 51.902344 34.257812 C 52.230469 34.367188 52.667969 35.570312 52.667969 35.570312 " clip-rule="nonzero"/></clipPath><clipPath id="04d9bc7e48"><path d="M 51.664062 35.003906 L 56.628906 35.003906 L 56.628906 37.78125 L 51.664062 37.78125 Z M 51.664062 35.003906 " clip-rule="nonzero"/></clipPath><clipPath id="2b1c4cfec9"><path d="M 53.105469 35.023438 C 56.609375 36.226562 55.734375 37.542969 55.40625 37.542969 C 55.078125 37.542969 54.3125 36.554688 54.421875 36.226562 C 54.53125 35.898438 55.734375 35.242188 56.0625 35.460938 C 56.390625 35.679688 56.5 36.992188 56.171875 37.320312 C 55.625 37.761719 52.667969 37.429688 52.121094 36.882812 C 51.792969 36.554688 51.683594 35.789062 51.902344 35.460938 C 52.121094 35.132812 53.105469 35.023438 53.105469 35.023438 " clip-rule="nonzero"/></clipPath><clipPath id="26ef562a00"><path d="M 53 34.886719 L 55.316406 34.886719 L 55.316406 36 L 53 36 Z M 53 34.886719 " clip-rule="nonzero"/></clipPath><clipPath id="d7d995bb7a"><path d="M 55.296875 35.351562 C 53.324219 36.554688 52.996094 35.570312 53.214844 35.242188 C 53.433594 34.914062 54.96875 34.914062 54.96875 34.914062 " clip-rule="nonzero"/></clipPath><clipPath id="97651d9976"><path d="M 53.425781 35.667969 L 55.644531 35.667969 L 55.644531 37.90625 L 53.425781 37.90625 Z M 53.425781 35.667969 " clip-rule="nonzero"/></clipPath><clipPath id="2d941dd672"><path d="M 55.625 36.445312 C 54.75 37.871094 53.875 37.652344 53.65625 37.320312 C 53.433594 36.992188 53.542969 36.117188 53.875 35.898438 C 54.203125 35.679688 55.40625 36.007812 55.40625 36.007812 " clip-rule="nonzero"/></clipPath><clipPath id="d355d5d63a"><path d="M 53.527344 35.332031 L 55.878906 35.332031 L 55.878906 38 L 53.527344 38 Z M 53.527344 35.332031 " clip-rule="nonzero"/></clipPath><clipPath id="3431840fff"><path d="M 53.542969 36.445312 C 54.640625 35.351562 55.734375 36.554688 55.625 36.882812 C 55.515625 37.210938 54.09375 37.429688 53.765625 37.210938 C 53.542969 36.992188 53.542969 35.789062 53.875 35.570312 C 54.203125 35.351562 55.625 36.007812 55.734375 36.445312 C 55.84375 36.773438 55.1875 37.761719 54.75 37.871094 C 54.421875 37.980469 53.542969 37.101562 53.542969 37.101562 " clip-rule="nonzero"/></clipPath><clipPath id="d8a173d617"><path d="M 53.417969 34.148438 L 55.75 34.148438 L 55.75 36.90625 L 53.417969 36.90625 Z M 53.417969 34.148438 " clip-rule="nonzero"/></clipPath><clipPath id="07b7c72fbb"><path d="M 55.734375 35.789062 C 54.203125 36.882812 53.433594 35.679688 53.542969 35.351562 C 53.65625 35.023438 55.1875 34.804688 55.40625 35.023438 C 55.625 35.242188 54.96875 36.882812 54.640625 36.882812 C 54.3125 36.882812 53.433594 35.898438 53.433594 35.460938 C 53.433594 35.023438 53.984375 34.367188 54.3125 34.257812 C 54.75 34.148438 55.734375 34.914062 55.734375 34.914062 " clip-rule="nonzero"/></clipPath><clipPath id="f69bd8ceb3"><path d="M 78.351562 34.898438 L 80.8125 34.898438 L 80.8125 37.121094 L 78.351562 37.121094 Z M 78.351562 34.898438 " clip-rule="nonzero"/></clipPath><clipPath id="9eb17d4cd5"><path d="M 79.703125 34.914062 C 80.796875 36.445312 80.25 37.101562 79.921875 37.101562 C 79.484375 37.101562 78.609375 36.226562 78.609375 35.898438 C 78.609375 35.570312 79.921875 34.914062 80.25 35.132812 C 80.578125 35.351562 80.578125 36.664062 80.359375 36.882812 C 80.03125 37.101562 78.609375 36.664062 78.5 36.335938 C 78.390625 36.007812 79.484375 34.914062 79.484375 34.914062 " clip-rule="nonzero"/></clipPath><clipPath id="3709b42dc8"><path d="M 77 34.914062 L 81.03125 34.914062 L 81.03125 38.992188 L 77 38.992188 Z M 77 34.914062 " clip-rule="nonzero"/></clipPath><clipPath id="fe4882a86b"><path d="M 81.015625 36.226562 C 78.171875 38.746094 76.96875 37.761719 77.078125 37.429688 C 77.1875 37.101562 78.5 36.664062 78.828125 36.882812 C 79.15625 37.101562 79.046875 38.527344 78.71875 38.746094 C 78.390625 38.964844 77.296875 38.636719 77.1875 38.308594 C 77.078125 37.980469 78.0625 36.664062 78.390625 36.664062 C 78.71875 36.664062 79.265625 38.089844 79.046875 38.417969 C 78.828125 38.746094 77.734375 38.855469 77.40625 38.636719 C 77.078125 38.417969 76.96875 37.871094 77.078125 37.429688 C 77.296875 36.664062 78.609375 35.023438 79.375 34.914062 C 79.921875 34.914062 81.015625 36.226562 81.015625 36.226562 " clip-rule="nonzero"/></clipPath><clipPath id="cb68f1b959"><path d="M 69.167969 36 L 79.878906 36 L 79.878906 44.34375 L 69.167969 44.34375 Z M 69.167969 36 " clip-rule="nonzero"/></clipPath><clipPath id="03966b01d1"><path d="M 79.59375 38.199219 C 75.433594 41.589844 75.105469 39.730469 74.667969 39.730469 C 74.121094 39.730469 73.683594 42.136719 73.246094 42.136719 C 72.808594 42.136719 71.933594 41.042969 72.042969 40.605469 C 72.152344 40.058594 74.558594 39.074219 74.777344 39.292969 C 74.886719 39.402344 74.558594 39.949219 74.339844 40.386719 C 73.792969 41.261719 72.152344 43.5625 71.167969 44 C 70.617188 44.21875 69.742188 44.21875 69.523438 43.890625 C 69.304688 43.5625 69.742188 42.136719 70.070312 42.136719 C 70.398438 42.136719 71.386719 43.5625 71.277344 43.890625 C 71.167969 44.109375 70.289062 44.328125 69.960938 44.21875 C 69.632812 44.109375 69.195312 43.5625 69.304688 43.011719 C 69.414062 41.808594 72.917969 38.527344 74.339844 37.871094 C 74.996094 37.542969 75.761719 37.429688 76.199219 37.761719 C 76.636719 38.089844 76.96875 39.730469 76.636719 40.386719 C 76.199219 41.261719 74.121094 42.246094 73.246094 42.136719 C 72.699219 42.027344 71.933594 41.480469 71.933594 41.042969 C 71.933594 40.277344 74.667969 38.199219 75.542969 38.199219 C 76.089844 38.199219 76.75 38.964844 76.859375 39.511719 C 76.96875 40.386719 75.871094 42.792969 75.214844 43.011719 C 74.777344 43.121094 73.902344 42.574219 73.792969 42.027344 C 73.574219 41.152344 75.214844 39.074219 76.199219 38.089844 C 77.078125 37.210938 79.046875 36.007812 79.484375 36.226562 C 79.8125 36.445312 79.59375 38.199219 79.59375 38.199219 " clip-rule="nonzero"/></clipPath><clipPath id="b4babe73f0"><path d="M 52.742188 41.324219 L 56 41.324219 L 56 46 L 52.742188 46 Z M 52.742188 41.324219 " clip-rule="nonzero"/></clipPath><clipPath id="15f4956424"><path d="M 53.765625 45.75 C 53.214844 41.699219 54.859375 41.808594 54.96875 42.136719 C 55.078125 42.464844 54.3125 43.671875 53.984375 43.671875 C 53.65625 43.671875 52.777344 42.902344 52.777344 42.574219 C 52.777344 42.246094 53.875 41.371094 54.3125 41.480469 C 54.96875 41.699219 56.171875 44.875 55.84375 45.53125 C 55.625 45.96875 53.765625 45.75 53.765625 45.75 " clip-rule="nonzero"/></clipPath><clipPath id="7f4ceb3694"><path d="M 78 34.6875 L 80.832031 34.6875 L 80.832031 41.390625 L 78 41.390625 Z M 78 34.6875 " clip-rule="nonzero"/></clipPath><clipPath id="a46bdd75ae"><path d="M 80.6875 35.570312 C 80.46875 40.933594 79.8125 41.371094 79.484375 41.261719 C 79.15625 41.152344 78.609375 39.511719 78.828125 39.292969 C 79.046875 39.074219 80.46875 39.402344 80.6875 39.730469 C 80.796875 40.058594 80.359375 41.042969 80.03125 41.152344 C 79.703125 41.261719 78.828125 40.933594 78.5 40.386719 C 77.953125 39.511719 77.953125 36.335938 78.5 35.460938 C 78.828125 35.023438 79.484375 34.695312 79.8125 34.695312 C 80.140625 34.695312 80.6875 35.570312 80.6875 35.570312 " clip-rule="nonzero"/></clipPath><clipPath id="8d0561d270"><path d="M 79 35.671875 L 81.582031 35.671875 L 81.582031 40.71875 L 79 40.71875 Z M 79 35.671875 " clip-rule="nonzero"/></clipPath><clipPath id="d4ebe76f0d"><path d="M 81.5625 36.882812 C 81.015625 40.277344 80.140625 40.714844 79.8125 40.496094 C 79.484375 40.277344 79.265625 38.855469 79.484375 38.636719 C 79.703125 38.417969 81.234375 38.964844 81.34375 39.292969 C 81.453125 39.621094 81.015625 40.386719 80.6875 40.496094 C 80.359375 40.605469 79.375 40.167969 79.15625 39.730469 C 78.828125 39.074219 79.046875 36.992188 79.484375 36.335938 C 79.8125 35.898438 80.578125 35.679688 80.90625 35.789062 C 81.234375 35.898438 81.5625 36.882812 81.5625 36.882812 " clip-rule="nonzero"/></clipPath><clipPath id="74a3f43f11"><path d="M 73.570312 35.089844 L 76.441406 35.089844 L 76.441406 38.351562 L 73.570312 38.351562 Z M 73.570312 35.089844 " clip-rule="nonzero"/></clipPath><clipPath id="a0187b517d"><path d="M 76.417969 36.992188 C 74.777344 38.308594 73.683594 37.542969 73.683594 37.210938 C 73.683594 36.882812 74.996094 36.117188 75.324219 36.226562 C 75.652344 36.335938 75.871094 37.761719 75.652344 37.980469 C 75.433594 38.199219 73.902344 37.980469 73.792969 37.652344 C 73.574219 37.210938 74.886719 35.132812 75.324219 35.132812 C 75.761719 35.132812 76.417969 36.992188 76.417969 36.992188 " clip-rule="nonzero"/></clipPath><clipPath id="ec30bb6295"><path d="M 53.066406 37.160156 L 59.898438 37.160156 L 59.898438 46.199219 L 53.066406 46.199219 Z M 53.066406 37.160156 " clip-rule="nonzero"/></clipPath><clipPath id="696768607f"><path d="M 54.53125 45.96875 C 53.105469 37.761719 53.65625 37.429688 54.09375 37.320312 C 54.53125 37.210938 55.078125 37.210938 55.625 37.429688 C 56.828125 37.980469 59.785156 40.386719 59.894531 41.808594 C 59.894531 43.121094 57.703125 45.203125 56.828125 45.53125 C 56.390625 45.640625 55.734375 45.53125 55.515625 45.203125 C 55.296875 44.875 55.40625 43.78125 55.734375 43.5625 C 56.0625 43.34375 57.375 43.890625 57.484375 44.21875 C 57.59375 44.546875 56.28125 45.640625 55.953125 45.53125 C 55.625 45.421875 55.296875 44.546875 55.40625 44 C 55.515625 43.34375 57.265625 42.902344 57.375 42.136719 C 57.484375 41.261719 55.40625 38.855469 55.078125 38.964844 C 54.75 39.183594 57.15625 44.875 56.5 45.75 C 56.171875 46.1875 54.53125 45.96875 54.53125 45.96875 " clip-rule="nonzero"/></clipPath><clipPath id="e12e1f6e2d"><path d="M 74.21875 32.113281 L 83 32.113281 L 83 42.605469 L 74.21875 42.605469 Z M 74.21875 32.113281 " clip-rule="nonzero"/></clipPath><clipPath id="d9f99a55b7"><path d="M 74.449219 33.929688 C 79.921875 32.179688 81.671875 32.507812 82.328125 33.382812 C 82.988281 34.257812 82.769531 36.007812 82.550781 37.320312 C 82.328125 38.855469 81.671875 41.808594 80.796875 42.246094 C 80.25 42.464844 78.9375 41.917969 78.828125 41.480469 C 78.71875 41.152344 79.375 39.949219 79.8125 39.949219 C 80.25 39.949219 81.34375 40.933594 81.34375 41.371094 C 81.34375 41.808594 80.25 42.574219 79.8125 42.464844 C 79.375 42.464844 78.9375 41.917969 78.828125 41.261719 C 78.5 39.949219 81.015625 35.351562 80.140625 34.585938 C 79.375 33.820312 75.433594 36.554688 74.667969 36.007812 C 74.230469 35.679688 74.449219 33.929688 74.449219 33.929688 " clip-rule="nonzero"/></clipPath><clipPath id="f9403f9781"><path d="M 54 39.15625 L 58.046875 39.15625 L 58.046875 43.914062 L 54 43.914062 Z M 54 39.15625 " clip-rule="nonzero"/></clipPath><clipPath id="4139639cb2"><path d="M 56.5 40.605469 C 57.484375 42.902344 56.9375 43.78125 56.609375 43.78125 C 55.953125 43.78125 53.765625 40.167969 54.09375 39.839844 C 54.421875 39.511719 57.8125 40.714844 57.921875 41.371094 C 58.03125 41.808594 56.609375 43.011719 56.390625 42.902344 C 56.171875 42.792969 56.171875 41.152344 56.5 40.933594 C 56.828125 40.714844 58.03125 41.261719 58.03125 41.589844 C 58.03125 41.917969 56.828125 43.011719 56.5 42.902344 C 56.0625 42.792969 55.84375 39.621094 55.953125 39.621094 C 56.0625 39.621094 57.8125 42.464844 57.484375 43.121094 C 57.265625 43.5625 56.28125 43.890625 55.84375 43.671875 C 55.1875 43.34375 54.203125 40.605469 54.421875 39.949219 C 54.53125 39.511719 55.40625 39.183594 55.734375 39.292969 C 56.0625 39.402344 56.5 40.605469 56.5 40.605469 " clip-rule="nonzero"/></clipPath><clipPath id="bee27fed37"><path d="M 53.753906 38.296875 L 55.972656 38.296875 L 55.972656 40.535156 L 53.753906 40.535156 Z M 53.753906 38.296875 " clip-rule="nonzero"/></clipPath><clipPath id="837d6db8c8"><path d="M 55.953125 39.074219 C 55.078125 40.496094 54.203125 40.277344 53.984375 39.949219 C 53.765625 39.621094 53.984375 38.746094 54.3125 38.527344 C 54.640625 38.308594 55.734375 38.636719 55.734375 38.636719 " clip-rule="nonzero"/></clipPath><clipPath id="d62084c331"><path d="M 80.433594 33.585938 L 82.785156 33.585938 L 82.785156 36 L 80.433594 36 Z M 80.433594 33.585938 " clip-rule="nonzero"/></clipPath><clipPath id="beb0031c3a"><path d="M 80.578125 34.695312 C 82 33.601562 82.769531 34.148438 82.769531 34.476562 C 82.769531 34.914062 81.78125 35.898438 81.453125 35.789062 C 81.125 35.679688 80.46875 34.476562 80.6875 34.148438 C 80.90625 33.820312 82.328125 33.710938 82.550781 34.039062 C 82.769531 34.367188 82.21875 35.789062 81.890625 35.898438 C 81.5625 36.007812 80.578125 34.914062 80.578125 34.914062 " clip-rule="nonzero"/></clipPath><clipPath id="8491c27268"><path d="M 70.476562 36.066406 L 79.628906 36.066406 L 79.628906 45 L 70.476562 45 Z M 70.476562 36.066406 " clip-rule="nonzero"/></clipPath><clipPath id="1d2ea03440"><path d="M 74.121094 44.546875 C 70.617188 42.027344 70.507812 41.480469 70.835938 40.824219 C 71.386719 39.621094 74.667969 37.210938 76.199219 36.664062 C 77.1875 36.335938 78.5 36.117188 78.9375 36.664062 C 79.59375 37.542969 77.84375 42.574219 76.75 43.453125 C 76.199219 43.890625 74.996094 43.890625 74.667969 43.671875 C 74.339844 43.453125 74.339844 43.011719 74.339844 42.574219 C 74.230469 41.699219 74.339844 39.511719 74.886719 38.964844 C 75.214844 38.636719 75.980469 38.527344 76.417969 38.746094 C 76.75 38.964844 77.1875 39.402344 77.1875 39.949219 C 77.1875 40.824219 75.542969 42.792969 74.777344 43.230469 C 74.230469 43.5625 73.574219 43.671875 73.246094 43.453125 C 72.917969 43.230469 72.589844 41.917969 72.808594 41.589844 C 73.027344 41.261719 74.777344 41.261719 74.996094 41.589844 C 75.214844 41.917969 74.886719 43.34375 74.558594 43.453125 C 74.121094 43.5625 72.589844 42.683594 72.589844 42.027344 C 72.480469 41.152344 75.214844 38.636719 76.089844 38.636719 C 76.527344 38.636719 77.078125 39.183594 77.1875 39.621094 C 77.40625 40.277344 77.1875 42.027344 76.75 42.246094 C 76.417969 42.464844 75.324219 42.027344 75.105469 41.589844 C 74.777344 40.824219 76.859375 36.992188 77.078125 36.992188 C 77.1875 36.992188 76.75 38.089844 76.96875 38.308594 C 77.1875 38.527344 78.390625 38.308594 78.390625 38.527344 C 78.5 39.074219 73.027344 42.683594 72.261719 42.355469 C 71.933594 42.136719 71.933594 40.824219 72.152344 40.714844 C 72.589844 40.496094 75.542969 42.355469 75.871094 43.230469 C 76.089844 43.78125 75.871094 44.65625 75.542969 44.875 C 75.214844 45.09375 74.121094 44.546875 74.121094 44.546875 " clip-rule="nonzero"/></clipPath></defs><g fill="#011f26" fill-opacity="1"><g transform="translate(13.711084, 72.126991)"><g><path d="M 8.625 0.125 C 4.800781 0.125 2.890625 -0.296875 2.890625 -1.140625 L 2.890625 -41.9375 C 2.890625 -43.363281 3.539062 -44.078125 4.84375 -44.078125 L 15.9375 -44.078125 C 22.144531 -44.078125 26.625 -42.796875 29.375 -40.234375 C 32.125 -37.671875 33.5 -33.957031 33.5 -29.09375 C 33.5 -25.0625 32.195312 -21.367188 29.59375 -18.015625 C 28.289062 -16.328125 26.378906 -14.976562 23.859375 -13.96875 C 21.347656 -12.96875 18.410156 -12.46875 15.046875 -12.46875 L 15.046875 -1.203125 C 15.046875 -0.691406 14.257812 -0.34375 12.6875 -0.15625 C 11.113281 0.03125 9.757812 0.125 8.625 0.125 Z M 15.046875 -33.125 L 15.046875 -23.171875 L 15.875 -23.171875 C 17.34375 -23.171875 18.578125 -23.628906 19.578125 -24.546875 C 20.585938 -25.472656 21.09375 -26.773438 21.09375 -28.453125 C 21.09375 -30.140625 20.742188 -31.335938 20.046875 -32.046875 C 19.359375 -32.765625 18.132812 -33.125 16.375 -33.125 Z M 15.046875 -33.125 "/></g></g></g><g fill="#f2668b" fill-opacity="1"><g transform="translate(49.606991, 72.126991)"><g><path d="M 5.578125 -3.71875 C 2.953125 -6.613281 1.640625 -10.617188 1.640625 -15.734375 C 1.640625 -20.859375 2.953125 -24.867188 5.578125 -27.765625 C 8.203125 -30.660156 11.738281 -32.109375 16.1875 -32.109375 C 20.632812 -32.109375 24.160156 -30.660156 26.765625 -27.765625 C 29.367188 -24.867188 30.671875 -20.859375 30.671875 -15.734375 C 30.671875 -10.617188 29.367188 -6.613281 26.765625 -3.71875 C 24.160156 -0.820312 20.632812 0.625 16.1875 0.625 C 11.738281 0.625 8.203125 -0.820312 5.578125 -3.71875 Z M 16.203125 -21.59375 C 13.835938 -21.59375 12.65625 -19.660156 12.65625 -15.796875 C 12.65625 -11.941406 13.835938 -10.015625 16.203125 -10.015625 C 18.578125 -10.015625 19.765625 -11.941406 19.765625 -15.796875 C 19.765625 -19.660156 18.578125 -21.59375 16.203125 -21.59375 Z M 16.203125 -21.59375 "/></g></g></g><g fill="#011f26" fill-opacity="1"><g transform="translate(81.911597, 72.126991)"><g><path d="M 16.625 -0.0625 C 16.625 0.226562 14.710938 0.375 10.890625 0.375 C 7.066406 0.289062 5.15625 0.125 5.15625 -0.125 L 5.15625 -21.03125 L 3.46875 -21.03125 C 2.789062 -21.03125 2.253906 -21.4375 1.859375 -22.25 C 1.460938 -23.070312 1.265625 -24.09375 1.265625 -25.3125 C 1.265625 -29.84375 2.609375 -32.109375 5.296875 -32.109375 C 7.179688 -32.109375 8.753906 -31.53125 10.015625 -30.375 C 11.273438 -29.226562 11.90625 -27.921875 11.90625 -26.453125 C 12.78125 -28.171875 13.960938 -29.539062 15.453125 -30.5625 C 16.941406 -31.59375 18.46875 -32.109375 20.03125 -32.109375 C 22.457031 -32.109375 23.925781 -31.476562 24.4375 -30.21875 C 24.5625 -29.882812 24.625 -29.390625 24.625 -28.734375 C 24.625 -28.085938 24.421875 -26.925781 24.015625 -25.25 C 23.617188 -23.570312 23.210938 -22.351562 22.796875 -21.59375 C 22.378906 -20.84375 22.125 -20.46875 22.03125 -20.46875 C 21.945312 -20.46875 21.554688 -20.625 20.859375 -20.9375 C 20.171875 -21.25 19.554688 -21.40625 19.015625 -21.40625 C 17.421875 -21.40625 16.625 -20.144531 16.625 -17.625 Z M 16.625 -0.0625 "/></g></g></g><g fill="#011f26" fill-opacity="1"><g transform="translate(106.839941, 72.126991)"><g><path d="M 2.828125 -43.578125 C 2.828125 -44.242188 4.738281 -44.578125 8.5625 -44.578125 C 12.132812 -44.453125 13.921875 -44.179688 13.921875 -43.765625 L 13.921875 -19.578125 L 20.15625 -31.109375 C 20.445312 -31.734375 22.226562 -32.046875 25.5 -32.046875 C 28.769531 -32.046875 30.867188 -31.835938 31.796875 -31.421875 L 23.609375 -18.078125 L 33.0625 -0.375 C 33.144531 -0.207031 32.351562 -0.0703125 30.6875 0.03125 C 29.03125 0.132812 27.660156 0.1875 26.578125 0.1875 C 22.546875 0.1875 20.382812 0 20.09375 -0.375 L 13.859375 -14.359375 L 13.859375 -0.4375 C 13.859375 0.101562 12.019531 0.375 8.34375 0.375 C 4.664062 0.375 2.828125 0.125 2.828125 -0.375 Z M 2.828125 -43.578125 "/></g></g></g><g fill="#011f26" fill-opacity="1"><g transform="translate(140.266594, 72.126991)"><g><path d="M 8.625 0.125 C 4.800781 0.125 2.890625 -0.296875 2.890625 -1.140625 L 2.890625 -41.9375 C 2.890625 -43.363281 3.539062 -44.078125 4.84375 -44.078125 L 15.9375 -44.078125 C 22.144531 -44.078125 26.625 -42.796875 29.375 -40.234375 C 32.125 -37.671875 33.5 -33.957031 33.5 -29.09375 C 33.5 -25.0625 32.195312 -21.367188 29.59375 -18.015625 C 28.289062 -16.328125 26.378906 -14.976562 23.859375 -13.96875 C 21.347656 -12.96875 18.410156 -12.46875 15.046875 -12.46875 L 15.046875 -1.203125 C 15.046875 -0.691406 14.257812 -0.34375 12.6875 -0.15625 C 11.113281 0.03125 9.757812 0.125 8.625 0.125 Z M 15.046875 -33.125 L 15.046875 -23.171875 L 15.875 -23.171875 C 17.34375 -23.171875 18.578125 -23.628906 19.578125 -24.546875 C 20.585938 -25.472656 21.09375 -26.773438 21.09375 -28.453125 C 21.09375 -30.140625 20.742188 -31.335938 20.046875 -32.046875 C 19.359375 -32.765625 18.132812 -33.125 16.375 -33.125 Z M 15.046875 -33.125 "/></g></g></g><g fill="#011f26" fill-opacity="1"><g transform="translate(176.148306, 72.126991)"><g><path d="M 5.578125 -3.71875 C 2.953125 -6.613281 1.640625 -10.617188 1.640625 -15.734375 C 1.640625 -20.859375 2.953125 -24.867188 5.578125 -27.765625 C 8.203125 -30.660156 11.738281 -32.109375 16.1875 -32.109375 C 20.632812 -32.109375 24.160156 -30.660156 26.765625 -27.765625 C 29.367188 -24.867188 30.671875 -20.859375 30.671875 -15.734375 C 30.671875 -10.617188 29.367188 -6.613281 26.765625 -3.71875 C 24.160156 -0.820312 20.632812 0.625 16.1875 0.625 C 11.738281 0.625 8.203125 -0.820312 5.578125 -3.71875 Z M 16.203125 -21.59375 C 13.835938 -21.59375 12.65625 -19.660156 12.65625 -15.796875 C 12.65625 -11.941406 13.835938 -10.015625 16.203125 -10.015625 C 18.578125 -10.015625 19.765625 -11.941406 19.765625 -15.796875 C 19.765625 -19.660156 18.578125 -21.59375 16.203125 -21.59375 Z M 16.203125 -21.59375 "/></g></g></g><g fill="#011f26" fill-opacity="1"><g transform="translate(208.441839, 72.126991)"><g><path d="M 13.15625 -15.609375 C 13.15625 -11.492188 14.707031 -9.4375 17.8125 -9.4375 C 19.832031 -9.4375 21.515625 -9.835938 22.859375 -10.640625 C 23.484375 -10.640625 23.992188 -9.554688 24.390625 -7.390625 C 24.796875 -5.234375 25 -3.765625 25 -2.984375 C 25 -2.210938 24.894531 -1.703125 24.6875 -1.453125 C 22.457031 -0.0664062 19.410156 0.625 15.546875 0.625 C 11.691406 0.625 8.410156 -0.8125 5.703125 -3.6875 C 2.992188 -6.5625 1.640625 -10.484375 1.640625 -15.453125 C 1.640625 -20.429688 2.972656 -24.453125 5.640625 -27.515625 C 8.304688 -30.578125 11.851562 -32.109375 16.28125 -32.109375 C 20.707031 -32.109375 23.78125 -31.039062 25.5 -28.90625 C 25.875 -28.4375 26.0625 -27.75 26.0625 -26.84375 C 26.0625 -25.945312 25.894531 -24.847656 25.5625 -23.546875 C 24.8125 -20.859375 23.828125 -19.304688 22.609375 -18.890625 C 22.441406 -18.847656 22.195312 -18.828125 21.875 -18.828125 C 21.5625 -18.828125 21.175781 -19.078125 20.71875 -19.578125 C 19.082031 -21.210938 17.769531 -22.03125 16.78125 -22.03125 C 15.789062 -22.03125 14.9375 -21.523438 14.21875 -20.515625 C 13.507812 -19.515625 13.15625 -17.878906 13.15625 -15.609375 Z M 13.15625 -15.609375 "/></g></g></g><g fill="#011f26" fill-opacity="1"><g transform="translate(235.132799, 72.126991)"><g><path d="M 2.828125 -43.578125 C 2.828125 -44.242188 4.738281 -44.578125 8.5625 -44.578125 C 12.132812 -44.453125 13.921875 -44.179688 13.921875 -43.765625 L 13.921875 -19.578125 L 20.15625 -31.109375 C 20.445312 -31.734375 22.226562 -32.046875 25.5 -32.046875 C 28.769531 -32.046875 30.867188 -31.835938 31.796875 -31.421875 L 23.609375 -18.078125 L 33.0625 -0.375 C 33.144531 -0.207031 32.351562 -0.0703125 30.6875 0.03125 C 29.03125 0.132812 27.660156 0.1875 26.578125 0.1875 C 22.546875 0.1875 20.382812 0 20.09375 -0.375 L 13.859375 -14.359375 L 13.859375 -0.4375 C 13.859375 0.101562 12.019531 0.375 8.34375 0.375 C 4.664062 0.375 2.828125 0.125 2.828125 -0.375 Z M 2.828125 -43.578125 "/></g></g></g><g fill="#011f26" fill-opacity="1"><g transform="translate(268.559453, 72.126991)"><g><path d="M 26.640625 -1.703125 C 23.992188 -0.148438 20.59375 0.625 16.4375 0.625 C 12.28125 0.625 8.773438 -0.789062 5.921875 -3.625 C 3.066406 -6.457031 1.640625 -10.378906 1.640625 -15.390625 C 1.640625 -20.410156 3.015625 -24.453125 5.765625 -27.515625 C 8.515625 -30.578125 11.988281 -32.109375 16.1875 -32.109375 C 20.382812 -32.109375 23.625 -31.035156 25.90625 -28.890625 C 28.195312 -26.753906 29.34375 -24.15625 29.34375 -21.09375 C 29.34375 -14.289062 25.4375 -10.890625 17.625 -10.890625 L 13.28125 -10.890625 C 13.28125 -9.628906 13.625 -8.757812 14.3125 -8.28125 C 15.007812 -7.800781 16.03125 -7.5625 17.375 -7.5625 C 20.3125 -7.5625 23.101562 -8.234375 25.75 -9.578125 C 25.789062 -9.617188 25.984375 -9.320312 26.328125 -8.6875 C 27.328125 -6.882812 27.828125 -5.363281 27.828125 -4.125 C 27.828125 -2.882812 27.429688 -2.078125 26.640625 -1.703125 Z M 18.765625 -19.890625 C 18.765625 -21.660156 17.90625 -22.546875 16.1875 -22.546875 C 15.382812 -22.546875 14.695312 -22.300781 14.125 -21.8125 C 13.5625 -21.332031 13.28125 -20.628906 13.28125 -19.703125 L 13.28125 -17.75 L 16.6875 -17.75 C 18.070312 -17.75 18.765625 -18.460938 18.765625 -19.890625 Z M 18.765625 -19.890625 "/></g></g></g><g fill="#011f26" fill-opacity="1"><g transform="translate(299.153331, 72.126991)"><g><path d="M 17.3125 -0.375 C 17.3125 0.125 15.550781 0.375 12.03125 0.375 C 7.832031 0.207031 5.734375 -0.0625 5.734375 -0.4375 L 5.734375 -22.734375 L 2.515625 -22.734375 C 1.679688 -22.734375 1.265625 -24.179688 1.265625 -27.078125 C 1.265625 -27.828125 1.335938 -28.75 1.484375 -29.84375 C 1.628906 -30.9375 1.929688 -31.484375 2.390625 -31.484375 L 5.734375 -31.484375 L 5.734375 -37.03125 C 5.734375 -37.863281 7.503906 -38.28125 11.046875 -38.28125 C 14.597656 -38.28125 16.375 -37.945312 16.375 -37.28125 L 16.375 -33.25 L 16.4375 -31.484375 L 21.78125 -31.484375 C 22.5 -31.484375 22.859375 -30.015625 22.859375 -27.078125 C 22.859375 -24.140625 22.5 -22.671875 21.78125 -22.671875 L 17.3125 -22.671875 Z M 17.3125 -0.375 "/></g></g></g><g fill="#00bf63" fill-opacity="1"><g transform="translate(323.475022, 71.377005)"><g><path d="M 15.171875 -38.390625 L 15.171875 -35.546875 C 17.640625 -35.441406 19.773438 -35.097656 21.578125 -34.515625 C 23.378906 -33.929688 24.28125 -33.054688 24.28125 -31.890625 C 24.28125 -30.859375 23.9375 -29.488281 23.25 -27.78125 C 22.570312 -26.082031 22.097656 -25.179688 21.828125 -25.078125 C 19.023438 -26.242188 16.804688 -26.894531 15.171875 -27.03125 L 15.171875 -21.375 C 22.179688 -21.101562 25.6875 -17.734375 25.6875 -11.265625 C 25.6875 -8.222656 24.816406 -5.617188 23.078125 -3.453125 C 21.335938 -1.285156 18.703125 -0.0195312 15.171875 0.34375 L 15.171875 3.8125 C 15.171875 4.40625 14.992188 4.800781 14.640625 5 C 14.296875 5.207031 14.003906 5.3125 13.765625 5.3125 L 13.0625 5.109375 C 12.59375 4.835938 12.359375 4.40625 12.359375 3.8125 L 12.359375 0.5 C 9.554688 0.4375 7.078125 -0.0625 4.921875 -1 C 2.773438 -1.9375 1.703125 -3.125 1.703125 -4.5625 C 1.703125 -6.425781 2.269531 -8.3125 3.40625 -10.21875 C 3.5 -10.414062 3.632812 -10.628906 3.8125 -10.859375 C 6.507812 -9.222656 9.359375 -8.304688 12.359375 -8.109375 L 12.359375 -13.609375 C 5.253906 -14.046875 1.703125 -17.6875 1.703125 -24.53125 C 1.703125 -27.53125 2.648438 -30 4.546875 -31.9375 C 6.453125 -33.875 9.054688 -35.039062 12.359375 -35.4375 L 12.359375 -38.390625 C 12.359375 -38.992188 12.535156 -39.394531 12.890625 -39.59375 C 13.242188 -39.800781 13.535156 -39.90625 13.765625 -39.90625 L 14.46875 -39.703125 C 14.9375 -39.429688 15.171875 -38.992188 15.171875 -38.390625 Z M 18.71875 -11.515625 C 18.71875 -12.285156 18.457031 -12.8125 17.9375 -13.09375 C 17.425781 -13.375 16.503906 -13.546875 15.171875 -13.609375 L 15.171875 -8.203125 C 17.535156 -8.609375 18.71875 -9.710938 18.71875 -11.515625 Z M 9.3125 -23.984375 C 9.3125 -22.578125 10.328125 -21.757812 12.359375 -21.53125 L 12.359375 -26.984375 C 10.328125 -26.648438 9.3125 -25.648438 9.3125 -23.984375 Z M 9.3125 -23.984375 "/></g></g></g><g clip-path="url(#462e39434e)"><g clip-path="url(#03c7ef5ca2)"><g clip-path="url(#6891542aca)"><path fill="#f2668b" d="M 66.539062 60.40625 L 91.367188 71.644531 L 83.683594 88.621094 L 58.855469 77.382812 Z M 66.539062 60.40625 " fill-opacity="1" fill-rule="nonzero"/></g></g></g><g clip-path="url(#1efbc3d460)"><g clip-path="url(#0957bb0c59)"><path fill="#f2668b" d="M 44.570312 29.003906 L 66.460938 29.003906 L 66.460938 51.332031 L 44.570312 51.332031 Z M 44.570312 29.003906 " fill-opacity="1" fill-rule="nonzero"/></g></g><g clip-path="url(#e78a14982a)"><g clip-path="url(#61c23ad005)"><path fill="#f2668b" d="M 64.050781 29.113281 L 86.925781 29.113281 L 86.925781 52.863281 L 64.050781 52.863281 Z M 64.050781 29.113281 " fill-opacity="1" fill-rule="nonzero"/></g></g><g clip-path="url(#222ae1e1c3)"><g clip-path="url(#f89de3eb4e)"><path fill="#f2668b" d="M 48.292969 31.519531 L 62.957031 31.519531 L 62.957031 45.859375 L 48.292969 45.859375 Z M 48.292969 31.519531 " fill-opacity="1" fill-rule="nonzero"/></g></g><g clip-path="url(#4b00e61f62)"><g clip-path="url(#51c7668c13)"><path fill="#f2668b" d="M 48.949219 33.492188 L 63.613281 33.492188 L 63.613281 47.71875 L 48.949219 47.71875 Z M 48.949219 33.492188 " fill-opacity="1" fill-rule="nonzero"/></g></g><g clip-path="url(#47ac1f3aba)"><g clip-path="url(#2838c126da)"><path fill="#f2668b" d="M 48.621094 33.164062 L 64.050781 33.164062 L 64.050781 51.660156 L 48.621094 51.660156 Z M 48.621094 33.164062 " fill-opacity="1" fill-rule="nonzero"/></g></g><g clip-path="url(#6b2adf9c4d)"><g clip-path="url(#0a3a8e3aea)"><path fill="#f2668b" d="M 50.042969 32.617188 L 65.367188 32.617188 L 65.367188 48.046875 L 50.042969 48.046875 Z M 50.042969 32.617188 " fill-opacity="1" fill-rule="nonzero"/></g></g><g clip-path="url(#af2c661fed)"><g clip-path="url(#1804c71e3d)"><path fill="#f2668b" d="M 64.160156 31.410156 L 83.753906 31.410156 L 83.753906 50.019531 L 64.160156 50.019531 Z M 64.160156 31.410156 " fill-opacity="1" fill-rule="nonzero"/></g></g><g clip-path="url(#2744d394a0)"><g clip-path="url(#b344d8393c)"><path fill="#f2668b" d="M 68.429688 34.695312 L 83.097656 34.695312 L 83.097656 49.035156 L 68.429688 49.035156 Z M 68.429688 34.695312 " fill-opacity="1" fill-rule="nonzero"/></g></g><g clip-path="url(#d9a2ac73c1)"><g clip-path="url(#79eeb32188)"><path fill="#f2668b" d="M 67.992188 30.316406 L 85.285156 30.316406 L 85.285156 48.59375 L 67.992188 48.59375 Z M 67.992188 30.316406 " fill-opacity="1" fill-rule="nonzero"/></g></g><g clip-path="url(#2e110b6361)"><g clip-path="url(#9f3fb39904)"><path fill="#f2668b" d="M 45.554688 29.878906 L 58.90625 29.878906 L 58.90625 53.191406 L 45.554688 53.191406 Z M 45.554688 29.878906 " fill-opacity="1" fill-rule="nonzero"/></g></g><g clip-path="url(#04d9bc7e48)"><g clip-path="url(#2b1c4cfec9)"><path fill="#f2668b" d="M 47.523438 30.644531 L 60.769531 30.644531 L 60.769531 41.917969 L 47.523438 41.917969 Z M 47.523438 30.644531 " fill-opacity="1" fill-rule="nonzero"/></g></g><g clip-path="url(#26ef562a00)"><g clip-path="url(#d7d995bb7a)"><path fill="#f2668b" d="M 48.839844 30.535156 L 59.675781 30.535156 L 59.675781 41.042969 L 48.839844 41.042969 Z M 48.839844 30.535156 " fill-opacity="1" fill-rule="nonzero"/></g></g><g clip-path="url(#97651d9976)"><g clip-path="url(#2d941dd672)"><path fill="#f2668b" d="M 49.277344 31.519531 L 60.003906 31.519531 L 60.003906 42.136719 L 49.277344 42.136719 Z M 49.277344 31.519531 " fill-opacity="1" fill-rule="nonzero"/></g></g><g clip-path="url(#d355d5d63a)"><g clip-path="url(#3431840fff)"><path fill="#f2668b" d="M 49.167969 30.972656 L 60.113281 30.972656 L 60.113281 42.246094 L 49.167969 42.246094 Z M 49.167969 30.972656 " fill-opacity="1" fill-rule="nonzero"/></g></g><g clip-path="url(#d8a173d617)"><g clip-path="url(#07b7c72fbb)"><path fill="#f2668b" d="M 49.058594 29.878906 L 60.113281 29.878906 L 60.113281 41.261719 L 49.058594 41.261719 Z M 49.058594 29.878906 " fill-opacity="1" fill-rule="nonzero"/></g></g><g clip-path="url(#f69bd8ceb3)"><g clip-path="url(#9eb17d4cd5)"><path fill="#f2668b" d="M 74.121094 30.535156 L 85.175781 30.535156 L 85.175781 41.480469 L 74.121094 41.480469 Z M 74.121094 30.535156 " fill-opacity="1" fill-rule="nonzero"/></g></g><g clip-path="url(#3709b42dc8)"><g clip-path="url(#fe4882a86b)"><path fill="#f2668b" d="M 72.699219 30.535156 L 85.394531 30.535156 L 85.394531 43.121094 L 72.699219 43.121094 Z M 72.699219 30.535156 " fill-opacity="1" fill-rule="nonzero"/></g></g><g clip-path="url(#cb68f1b959)"><g clip-path="url(#03966b01d1)"><path fill="#f2668b" d="M 64.925781 31.851562 L 83.972656 31.851562 L 83.972656 48.59375 L 64.925781 48.59375 Z M 64.925781 31.851562 " fill-opacity="1" fill-rule="nonzero"/></g></g><g clip-path="url(#b4babe73f0)"><g clip-path="url(#15f4956424)"><path fill="#f2668b" d="M 48.402344 37.101562 L 60.222656 37.101562 L 60.222656 50.128906 L 48.402344 50.128906 Z M 48.402344 37.101562 " fill-opacity="1" fill-rule="nonzero"/></g></g><g clip-path="url(#7f4ceb3694)"><g clip-path="url(#a46bdd75ae)"><path fill="#f2668b" d="M 74.121094 30.316406 L 85.066406 30.316406 L 85.066406 45.640625 L 74.121094 45.640625 Z M 74.121094 30.316406 " fill-opacity="1" fill-rule="nonzero"/></g></g><g clip-path="url(#8d0561d270)"><g clip-path="url(#d4ebe76f0d)"><path fill="#f2668b" d="M 74.777344 31.410156 L 85.941406 31.410156 L 85.941406 44.875 L 74.777344 44.875 Z M 74.777344 31.410156 " fill-opacity="1" fill-rule="nonzero"/></g></g><g clip-path="url(#74a3f43f11)"><g clip-path="url(#a0187b517d)"><path fill="#f2668b" d="M 69.304688 30.753906 L 80.796875 30.753906 L 80.796875 42.683594 L 69.304688 42.683594 Z M 69.304688 30.753906 " fill-opacity="1" fill-rule="nonzero"/></g></g><g clip-path="url(#ec30bb6295)"><g clip-path="url(#696768607f)"><path fill="#eb95ac" d="M 48.511719 32.945312 L 64.269531 32.945312 L 64.269531 50.347656 L 48.511719 50.347656 Z M 48.511719 32.945312 " fill-opacity="1" fill-rule="nonzero"/></g></g><g clip-path="url(#e12e1f6e2d)"><g clip-path="url(#d9f99a55b7)"><path fill="#f2668b" d="M 70.070312 27.800781 L 86.925781 27.800781 L 86.925781 46.84375 L 70.070312 46.84375 Z M 70.070312 27.800781 " fill-opacity="1" fill-rule="nonzero"/></g></g><g clip-path="url(#f9403f9781)"><g clip-path="url(#4139639cb2)"><path fill="#eb95ac" d="M 49.714844 34.914062 L 62.410156 34.914062 L 62.410156 48.15625 L 49.714844 48.15625 Z M 49.714844 34.914062 " fill-opacity="1" fill-rule="nonzero"/></g></g><g clip-path="url(#bee27fed37)"><g clip-path="url(#837d6db8c8)"><path fill="#eb95ac" d="M 49.605469 34.148438 L 60.332031 34.148438 L 60.332031 44.765625 L 49.605469 44.765625 Z M 49.605469 34.148438 " fill-opacity="1" fill-rule="nonzero"/></g></g><g clip-path="url(#d62084c331)"><g clip-path="url(#beb0031c3a)"><path fill="#f2668b" d="M 76.199219 29.222656 L 87.144531 29.222656 L 87.144531 40.277344 L 76.199219 40.277344 Z M 76.199219 29.222656 " fill-opacity="1" fill-rule="nonzero"/></g></g><g clip-path="url(#8491c27268)"><g clip-path="url(#1d2ea03440)"><path fill="#eb95ac" d="M 66.460938 32.289062 L 83.316406 32.289062 L 83.316406 49.253906 L 66.460938 49.253906 Z M 66.460938 32.289062 " fill-opacity="1" fill-rule="nonzero"/></g></g></svg>